<svg xmlns="http://www.w3.org/2000/svg" viewBox="-11.5 -10.23174 23 20.46348">
  <title>React Logo</title>
  <circle cx="0" cy="0" r="2.05" fill="#61dafb"/>
<path d="M0 0 C5.32787444 2.75326056 10.76580129 6.905643 14 12 C15.11829602 17.12992214 13.58690255 22.11927451 12 27 C13.2684375 26.95166016 13.2684375 26.95166016 14.5625 26.90234375 C23.58878917 26.99465807 23.58878917 26.99465807 27.36328125 29.68359375 C29.43798568 32.01607708 31.20692979 34.44543763 33 37 C33.78117187 37.88816406 34.56234375 38.77632812 35.3671875 39.69140625 C41.07334506 46.44465333 41.07334506 46.44465333 40.8671875 50.81640625 C40.10415372 53.36108686 39.17568444 55.62201185 38 58 C37.67 58.99 37.34 59.98 37 61 C34.03 60.67 31.06 60.34 28 60 C27.73574219 60.70511719 27.47148438 61.41023438 27.19921875 62.13671875 C24.94921244 67.50888364 22.51753884 72.21574283 18 76 C13.77873339 76.64064961 10.53162351 76.47650297 6.29296875 75.99609375 C2.96699704 75.63364498 2.96699704 75.63364498 1.03125 77.76953125 C-0.49159266 81.06325533 0.35304079 83.47113156 1 87 C1.48879714 90.4149746 1.85594825 93.6184238 -0.04321289 96.68383789 C-2.94528374 99.80796301 -4.95969186 101.37784842 -9.3046875 101.5859375 C-10.82923697 101.5465095 -12.35326171 101.47558948 -13.875 101.375 C-14.65875 101.34792969 -15.4425 101.32085937 -16.25 101.29296875 C-18.16786981 101.22280278 -20.0843076 101.11519754 -22 101 C-22 103.31 -22 105.62 -22 108 C-20.82824219 107.99355469 -19.65648437 107.98710938 -18.44921875 107.98046875 C-10.96535063 108.20123887 -4.41126493 108.48197152 0.99975586 114.13232422 C6.34327804 120.66066075 11.46557218 129.25585447 10.86328125 137.98046875 C9.53887016 141.07875171 7.49685264 143.61352403 5.4375 146.25 C5.01275391 146.80429688 4.58800781 147.35859375 4.15039062 147.9296875 C3.10601659 149.29089411 2.05377536 150.64605833 1 152 C1.99 152 2.98 152 4 152 C4.67546875 151.30132812 5.3509375 150.60265625 6.046875 149.8828125 C17.25470451 138.448235 32.99086667 140.15737352 48 140 C49.21324951 139.95544678 50.42649902 139.91089355 51.67651367 139.86499023 C52.81838135 139.83348877 53.96024902 139.8019873 55.13671875 139.76953125 C56.14178467 139.73448486 57.14685059 139.69943848 58.18237305 139.66333008 C62.64348141 140.19637474 65.38267984 142.31638872 68.39453125 145.54296875 C70.72358087 149.10737802 71.60077768 151.63223058 71.3125 155.90234375 C68.24570234 163.14035132 60.99635664 168.16357689 55 173 C56.42982909 177.81259549 58.05773766 182.23360099 60.48706055 186.63696289 C63.19642829 191.98856283 64.2238714 197.02648888 65.01953125 202.93359375 C65.24197762 204.43322411 65.24197762 204.43322411 65.46891785 205.96315002 C65.93290745 209.11917126 66.37280373 212.2780131 66.8125 215.4375 C67.12542237 217.58290612 67.43986221 219.72809148 67.75585938 221.87304688 C68.32512656 225.77928139 68.89107904 229.68585443 69.43676758 233.59545898 C69.60067741 234.76600075 69.60067741 234.76600075 69.76789856 235.96018982 C70 238 70 238 70 241 C70.7734375 241.3403125 70.7734375 241.3403125 71.5625 241.6875 C72.366875 242.120625 73.17125 242.55375 74 243 C74.57951416 243.27271729 75.15902832 243.54543457 75.75610352 243.82641602 C77.91296477 245.03854336 79.39624902 246.10351537 81 248 C81.80333989 251.7594182 81.54712177 255.42611363 81.375 259.25 C81.05079401 267.30531827 81.05079401 267.30531827 84.04296875 274.51171875 C86.26251956 276.64868163 88.36166031 278.41699618 91 280 C88.03 283.96 88.03 283.96 85 288 C80.125 287.125 80.125 287.125 79 286 C77.65252916 285.76924918 76.29622435 285.58846937 74.9375 285.4375 C73.638125 285.293125 72.33875 285.14875 71 285 C70.60554688 286.04994141 70.60554688 286.04994141 70.203125 287.12109375 C68.45818505 291.29648576 66.22576118 295.19718208 64.046875 299.16015625 C62.70044899 301.89362198 62.70044899 301.89362198 63.765625 304.24609375 C64.17296875 304.82488281 64.5803125 305.40367187 65 306 C66 308 66 308 65.22265625 310.8203125 C64.83980469 311.91085937 64.45695312 313.00140625 64.0625 314.125 C63.68222656 315.22070312 63.30195312 316.31640625 62.91015625 317.4453125 C62.45962891 318.70988281 62.45962891 318.70988281 62 320 C62.51691406 320.37769531 63.03382812 320.75539063 63.56640625 321.14453125 C65.77638246 322.9912237 67.42214477 324.57952051 69 327 C69.31671369 330.81078083 68.80183242 334.27383756 68 338 C64.0479482 337.41827275 61.77904947 335.44842259 58.75 332.9375 C57.85796875 332.20402344 56.9659375 331.47054688 56.046875 330.71484375 C55.37140625 330.14894531 54.6959375 329.58304687 54 329 C54.33 330.0725 54.66 331.145 55 332.25 C56 336 56 336 56 340 C56.8971875 340.433125 56.8971875 340.433125 57.8125 340.875 C60 342 60 342 63 344 C62.62742038 346.65391327 62.28470875 347.75408673 60.22265625 349.53515625 C58.79283963 350.54611158 57.35536477 351.54632937 55.91015625 352.53515625 C52.75357266 356.60837556 51.61539077 360.85601834 52 366 C54.16472152 369.43998011 57.1065392 371.71772473 60.25 374.25 C69.82448784 382.72861849 69.82448784 382.72861849 70.71972656 389.34082031 C70.80722962 391.20049048 70.79166915 393.06418521 70.76953125 394.92578125 C70.71448757 398.07660868 70.71448757 398.07660868 72.796875 400.2421875 C73.88742187 401.11230469 73.88742187 401.11230469 75 402 C75.57621094 402.50144531 76.15242188 403.00289063 76.74609375 403.51953125 C80.4063608 406.42089195 80.4063608 406.42089195 84.9375 406.8125 C85.618125 406.544375 86.29875 406.27625 87 406 C86.649375 405.2575 86.29875 404.515 85.9375 403.75 C84.89960135 400.70549729 84.94643252 399.94120922 86 397 C87.41015625 394.859375 87.41015625 394.859375 89.0625 392.75 C89.88427734 391.69039063 89.88427734 391.69039063 90.72265625 390.609375 C91.14417969 390.07828125 91.56570313 389.5471875 92 389 C97.95193897 389.90180893 102.3297242 394.51040674 106 399 C107.05438075 402.41373499 107.25212508 405.4480025 107 409 C113.21693904 412.35311759 117.05632669 413.50446255 124 412 C125.22009766 411.62101563 125.22009766 411.62101563 126.46484375 411.234375 C129 411 129 411 131.23828125 412.43359375 C131.92277344 413.09488281 132.60726563 413.75617188 133.3125 414.4375 C134.00988281 415.09621094 134.70726562 415.75492187 135.42578125 416.43359375 C136.20501953 417.20896484 136.20501953 417.20896484 137 418 C136.02754225 420.69295994 135.24255379 422.73049579 133.3125 424.875 C131.71792721 427.02701994 131.71792721 427.02701994 132.0625 430.125 C133.70718157 437.39051051 133.70718157 437.39051051 137 444 C140.28738301 445.69611624 143.60703277 446.04847288 147.25 446.5 C158.89973336 448.5526287 158.89973336 448.5526287 163.375 454.0625 C165.0952067 456.61139075 166.02225619 458.06181616 165.94921875 461.140625 C164.63915157 463.70684713 162.94659705 464.31711679 160.4375 465.6875 C157.97831993 467.49745653 156.32839002 468.86158125 155.46533203 471.85351562 C154.51170548 478.41446631 154.45340147 486.11624026 158.4375 491.6875 C164.15022423 496.9598684 172.70992206 498.83511746 180 501 C180 503.64 180 506.28 180 509 C177.03 509.33 174.06 509.66 171 510 C170.71787272 511.64063145 170.47623701 513.28823223 170.25 514.9375 C170.04117187 516.31228516 170.04117187 516.31228516 169.828125 517.71484375 C170.11278982 523.15582364 171.88716527 527.8520987 175.75048828 531.77954102 C177.75539537 533.39597556 179.8054163 534.86843602 181.9375 536.3125 C183.3427565 537.30815836 184.74771136 538.30424262 186.15234375 539.30078125 C186.77101318 539.72528564 187.38968262 540.14979004 188.02709961 540.5871582 C188.67815674 541.053396 189.32921387 541.51963379 190 542 C190.87172852 542.5870874 191.74345703 543.1741748 192.64160156 543.77905273 C195.58585817 546.55171344 195.92372691 548.2793404 196.58203125 552.234375 C196.79150391 553.44867187 197.00097656 554.66296875 197.21679688 555.9140625 C197.41337891 557.17992187 197.60996094 558.44578125 197.8125 559.75 C198.02841797 561.00039063 198.24433594 562.25078125 198.46679688 563.5390625 C201.23255445 580.15116832 201.23255445 580.15116832 198 585 C197.34 585.66 196.68 586.32 196 587 C188.79935217 584.67015688 181.72531391 582.09569434 174.6875 579.3125 C173.08165039 578.71791992 173.08165039 578.71791992 171.44335938 578.11132812 C163.52553143 574.94320536 163.52553143 574.94320536 161.94604492 572.10839844 C161.72408447 571.43454102 161.50212402 570.76068359 161.2734375 570.06640625 C159.98679253 566.69120179 159.04427005 566.02369642 155.76391602 564.26782227 C151.55929555 562.51973828 147.25357584 561.06977027 142.9375 559.625 C140.71047762 558.84952544 138.48644287 558.06600989 136.26307678 557.28012085 C134.88355161 556.79578264 133.50132221 556.31906141 132.11619568 555.85098267 C129.07803052 554.81356517 126.69282788 553.79521858 124 552 C122.8125 548.375 122.8125 548.375 122 545 C121.31035156 544.89042969 120.62070313 544.78085937 119.91015625 544.66796875 C118.97042969 544.50941406 118.03070312 544.35085938 117.0625 544.1875 C116.14597656 544.03667969 115.22945312 543.88585937 114.28515625 543.73046875 C105.69191869 541.81972508 97.92706355 538.3372422 90.0625 534.4375 C89.02287109 533.96248047 87.98324219 533.48746094 86.91210938 532.99804688 C79.45108182 529.26510596 79.45108182 529.26510596 78.13037109 525.56103516 C77.89673212 523.8273241 77.69446107 522.08907062 77.52514648 520.34790039 C76.87194441 517.42747068 75.98751258 516.6459724 73.59375 514.90625 C72.24840805 514.07229534 70.88280866 513.27023734 69.5 512.5 C68.13470215 511.67826933 66.77008787 510.85540154 65.40625 510.03125 C64.2821875 509.3609375 63.158125 508.690625 62 508 C59.29833123 505.29833123 59.77195925 503.76954987 59.6875 500 C59.34641621 494.09006748 58.00296338 490.02212642 55.05859375 484.92578125 C54 483 54 483 54 481 C48.06 479.515 48.06 479.515 42 478 C43.1159596 471.30424242 43.1159596 471.30424242 44.734375 467.8984375 C49.86282013 456.85911599 49.86282013 456.85911599 48.29296875 445.14453125 C47.86628906 444.10683594 47.43960937 443.06914062 47 442 C46.52733575 440.56980946 46.06586269 439.13589078 45.61328125 437.69921875 C45.11952279 436.17372133 44.62343302 434.64897649 44.125 433.125 C43.89337158 432.41077881 43.66174316 431.69655762 43.4230957 430.96069336 C43.18292725 430.27499268 42.94275879 429.58929199 42.6953125 428.8828125 C42.48922363 428.27840332 42.28313477 427.67399414 42.07080078 427.05126953 C40.97800567 424.74666101 40.97800567 424.74666101 38.5480957 422.30029297 C35.42969173 418.66111368 34.56102078 414.91665191 33.53515625 410.3125 C33.12321544 408.62756295 32.71110076 406.94266839 32.29882812 405.2578125 C31.67627031 402.6261243 31.0608613 399.99292749 30.45043945 397.35839844 C29.85067388 394.79678507 29.22526999 392.24240942 28.59765625 389.6875 C28.42557144 388.90608643 28.25348663 388.12467285 28.07618713 387.31958008 C26.65089806 381.56792402 24.35669881 378.97727434 20 375 C19.5625 372.46484375 19.5625 372.46484375 20 369.9375 C20.13664062 368.99261719 20.27328125 368.04773438 20.4140625 367.07421875 C20.82341361 364.92648995 21.25775754 362.78344108 21.7109375 360.64453125 C23.1332084 354.5926951 23.1332084 354.5926951 22.015625 348.69140625 C20.50937245 346.58192291 20.50937245 346.58192291 18 344 C18 343.34 18 342.68 18 342 C15.03 342 12.06 342 9 342 C8.46505986 344.99808258 7.94680504 347.99754673 7.4375 351 C7.28603516 351.83917969 7.13457031 352.67835938 6.97851562 353.54296875 C5.83967618 360.37600539 5.61910725 366.59272366 8.5625 373.0625 C11.27047553 379.88553637 9.74617278 386.12444467 8 393 C6.60750796 393.36708396 5.21076667 393.71806563 3.8125 394.0625 C3.03519531 394.25972656 2.25789063 394.45695312 1.45703125 394.66015625 C-1.54175438 395.07493264 -3.15491553 395.11252917 -6 394 C-8.04304081 391.90234663 -9.62912173 389.55631741 -11.25 387.125 C-11.69601562 386.48691406 -12.14203125 385.84882813 -12.6015625 385.19140625 C-14.45872326 382.49570927 -15.96026502 380.11920493 -17 377 C-17.66 377 -18.32 377 -19 377 C-19.33 379.97 -19.66 382.94 -20 386 C-22.97 386 -25.94 386 -29 386 C-29.26554687 386.86367188 -29.53109375 387.72734375 -29.8046875 388.6171875 C-30.99332446 391.98110777 -32.48376574 394.9614615 -34.125 398.125 C-37.19685235 404.60422255 -37.68836087 409.92517995 -37 417 C-35.3603125 417.2784375 -35.3603125 417.2784375 -33.6875 417.5625 C-30 419 -30 419 -28.25 421.9375 C-27.8014965 423.28145799 -27.38805059 424.63735727 -27 426 C-26.61038086 427.17864624 -26.61038086 427.17864624 -26.21289062 428.38110352 C-24.02579603 435.49247071 -23.86789184 441.62201034 -24.25 449 C-24.51528393 457.81392334 -24.20494882 463.41292051 -18.53125 470.4375 C-17.77328125 471.2109375 -17.77328125 471.2109375 -17 472 C-16.443125 471.566875 -15.88625 471.13375 -15.3125 470.6875 C-9.88846372 466.72941947 -6.7130358 465.18980602 0 466 C0.99 466.33 1.98 466.66 3 467 C2.92984068 470.39953774 2.76252074 473.67951963 2 477 C-0.5 478.6875 -0.5 478.6875 -3 480 C-3.89592083 483.59919423 -3.89592083 483.59919423 -4 487 C-6.64 487.33 -9.28 487.66 -12 488 C-11.7525 489.11375 -11.7525 489.11375 -11.5 490.25 C-11.2525 492.10625 -11.2525 492.10625 -11 494 C-10.75830078 495.25876953 -10.75830078 495.25876953 -10.51171875 496.54296875 C-9.76275286 503.22951967 -11.20516592 506.92426206 -15.24536133 512.09790039 C-17.37135016 514.64473133 -19.54052076 517.14321953 -21.78491211 519.58642578 C-23.10399629 521.00474275 -23.10399629 521.00474275 -24 523 C-27.42747043 522.60452264 -30.30549086 521.08588767 -32.9375 518.875 C-35.29359737 514.7171811 -33.15626117 509.36732383 -32 505 C-35.07773487 505.58665276 -36.86344459 506.44572407 -39.20703125 508.51171875 C-40.0877832 509.27838867 -40.0877832 509.27838867 -40.98632812 510.06054688 C-41.58896484 510.59744141 -42.19160156 511.13433594 -42.8125 511.6875 C-44.00651042 512.73307292 -45.20052083 513.77864583 -46.39453125 514.82421875 C-46.98097412 515.35345947 -47.56741699 515.8827002 -48.17163086 516.42797852 C-50 518 -50 518 -52.03344727 519.44506836 C-53.9624931 520.86101637 -55.53054537 522.10907609 -57 524 C-57.09009773 527.11613881 -56.9106518 529.21775805 -56.3125 532.1875 C-55.66399776 537.04003169 -55.40515585 539.9759492 -57.921875 544.30859375 C-60.49170768 547.04949518 -63.18051549 549.5198591 -66 552 C-67.06725028 553.35523846 -68.11357745 554.72760282 -69.125 556.125 C-71.34515614 558.79811903 -72.93214249 559.48607638 -76.375 559.9375 C-78.169375 559.9684375 -78.169375 559.9684375 -80 560 C-79.01 562.64 -78.02 565.28 -77 568 C-78.62527298 570.28742123 -79.63362954 571.54747179 -82 573 C-83.97665691 573.1298946 -85.95705681 573.20652686 -87.9375 573.25 C-94.20096137 573.92770937 -96.81417134 576.34764981 -100.71508789 580.96582031 C-103.06380384 583.94928242 -105.3567766 586.9622172 -107.57177734 590.04638672 C-108.7500782 591.65814116 -110.02579088 593.19819271 -111.32421875 594.71484375 C-115.26549645 600.08931335 -115.45358514 608.38852495 -115.3359375 614.91796875 C-114.75505246 618.51810511 -113.03558132 621.01023993 -111 624 C-111.845625 624.556875 -112.69125 625.11375 -113.5625 625.6875 C-115.75359397 627.84145678 -115.99333798 628.88819392 -116.1796875 632.015625 C-115.64402484 641.5864508 -115.64402484 641.5864508 -111.375 649.875 C-110.92125 650.24625 -110.4675 650.6175 -110 651 C-110.92827246 653.57060065 -111.70129362 655.65546934 -113.50390625 657.73461914 C-116.46158096 662.2131217 -116.27259486 668.02418281 -116.78271484 673.27172852 C-116.9993336 675.43085771 -117.25834962 677.58219449 -117.51953125 679.73632812 C-117.66147846 681.11431553 -117.80088676 682.49256732 -117.9375 683.87109375 C-118.13666016 685.74172485 -118.13666016 685.74172485 -118.33984375 687.65014648 C-117.89827947 692.00266337 -116.23711334 693.20548134 -113 696 C-112.29296875 698.32421875 -112.29296875 698.32421875 -112.1875 700.6875 C-112.14496094 701.55246094 -112.10242187 702.41742187 -112.05859375 703.30859375 C-112.03925781 704.19675781 -112.01992187 705.08492187 -112 706 C-111.94972656 706.87785156 -111.89945313 707.75570312 -111.84765625 708.66015625 C-111.59948234 715.24172829 -111.59948234 715.24172829 -113.5 718.83984375 C-115.28062761 722.59121806 -115.2668895 725.17879405 -115.25 729.3125 C-115.41033037 736.786362 -117.46973901 742.69446861 -120.64941406 749.4152832 C-122.85383013 754.11120152 -122.85383013 754.11120152 -122 759 C-121.67 759.66 -121.34 760.32 -121 761 C-114.40403062 759.96229776 -109.97801094 758.76366246 -105.8125 753.3125 C-104.8464786 751.89400955 -103.89825379 750.46234491 -103 749 C-99.03520428 750.47930193 -96.22411767 752.23647057 -93 755 C-91.948125 754.319375 -90.89625 753.63875 -89.8125 752.9375 C-87.40673451 751.5827503 -86.30126572 751 -83.5 751 C-80.10744566 752.35702174 -77.12354749 754.10137309 -74 756 C-74.33 758.97 -74.66 761.94 -75 765 C-72.60080146 764.9307652 -72.60080146 764.9307652 -70 764 C-68.09497396 761.4952741 -68.09497396 761.4952741 -66.6875 758.4375 C-66.17574219 757.42558594 -65.66398437 756.41367187 -65.13671875 755.37109375 C-64.76160156 754.58863281 -64.38648438 753.80617188 -64 753 C-64.60070313 752.10796875 -65.20140625 751.2159375 -65.8203125 750.296875 C-66.58938395 749.11513106 -67.3575673 747.93280881 -68.125 746.75 C-68.52332031 746.16347656 -68.92164063 745.57695313 -69.33203125 744.97265625 C-70.4453125 743.234375 -70.4453125 743.234375 -72 740 C-70.26076884 735.05614814 -66.42855784 731.60749305 -62 729 C-57.85243708 728.1130105 -53.91017531 728.19596471 -49.6875 728.375 C-48.60404297 728.38144531 -47.52058594 728.38789062 -46.40429688 728.39453125 C-38.45558027 728.56249667 -38.45558027 728.56249667 -36.38793945 730.5480957 C-35.92991943 731.02722412 -35.47189941 731.50635254 -35 732 C-29.62409545 731.64281715 -24.8567967 730.32594597 -20 728 C-17.80136329 724.76447537 -17.48777499 721.81404781 -17 718 C-16.37662769 716.3166613 -15.72057168 714.64407989 -15 713 C-15.85464844 712.50113281 -16.70929688 712.00226562 -17.58984375 711.48828125 C-26.50556476 705.69358276 -26.50556476 705.69358276 -28.01953125 700.5078125 C-28.22740124 697.28758933 -28.25838087 694.21485426 -28 691 C-22.81143879 691.50713344 -19.09337381 694.14162344 -14.8125 696.890625 C-14.03237549 697.39108337 -13.25225098 697.89154175 -12.44848633 698.40716553 C-10.8013276 699.47159057 -9.15742867 700.54107472 -7.51660156 701.61523438 C-5.84861337 702.69874708 -4.17085266 703.7673725 -2.48339844 704.8203125 C14.1503097 715.20089398 14.1503097 715.20089398 17.19677734 726.17871094 C19.62360422 734.70284815 29.17703438 740.05535251 36.44921875 744.21875 C41.56178452 747.03467013 46.74203119 749.71438999 51.9296875 752.38867188 C56.69038849 754.88713136 61.34613694 757.55908159 66 760.25 C70.91999608 763.09178602 75.8377523 765.92761868 80.828125 768.64453125 C81.57707031 769.05477539 82.32601563 769.46501953 83.09765625 769.88769531 C84.49188968 770.64870385 85.89012182 771.40244997 87.29296875 772.14746094 C91.88880955 774.66642865 91.88880955 774.66642865 93 778 C92.77967422 781.17898621 92.04417899 783.53527377 90 786 C86.0452435 787.32720768 82.15109593 787.74256769 78 788 C78.60636086 793.92748675 79.62018586 797.97739171 83.625 802.5 C86.94472209 806.33461776 86.94472209 806.33461776 87.2109375 809.5390625 C87.0723171 811.23844596 86.93175072 812.93767201 86.7890625 814.63671875 C87.13075792 818.46497296 89.43905366 820.15369309 92.2734375 822.52734375 C94 824 94 824 96 827 C98.78925836 827.24486891 98.78925836 827.24486891 102 827.125 C107.80063982 827.38166548 110.35044918 828.57543836 114.5 832.625 C115.2528125 833.46289062 116.005625 834.30078125 116.78125 835.1640625 C118.8580396 837.30755272 118.8580396 837.30755272 121.62109375 836.84375 C124.05440102 836.01319434 124.05440102 836.01319434 126.5625 834.875 C129.39559435 833.85799177 130.22885836 833.95174043 133 835 C134.95703125 836.671875 134.95703125 836.671875 136.8125 838.75 C137.43769531 839.42546875 138.06289062 840.1009375 138.70703125 840.796875 C140 843 140 843 139.82421875 845.515625 C139 848 139 848 137 852 C131.39 851.34 125.78 850.68 120 850 C119.80505337 857.96338774 119.80505337 857.96338774 123.625 863.6875 C125.6640625 866.38671875 125.6640625 866.38671875 127 869 C126.07844308 872.60244978 124.334342 875.13512572 122 878 C117.04479294 875.91788248 113.57908871 872.0802818 109.70703125 868.45703125 C107.62481038 866.56710784 105.60895613 864.96991345 103.3125 863.375 C102.549375 862.59125 101.78625 861.8075 101 861 C101.09934232 859.11249599 101.20293331 857.22499515 101.33984375 855.33984375 C100.610605 850.31899303 96.52274239 846.59339997 93.39453125 842.7890625 C91.88748752 840.85565626 90.53768971 838.85824198 89.1875 836.8125 C88.69991211 836.09771484 88.21232422 835.38292969 87.70996094 834.64648438 C86.76590469 833.25850067 85.84533365 831.85411957 84.95410156 830.43164062 C81.6929216 825.77942506 79.10410886 824.55196895 73.56640625 823.2578125 C68.19044109 821.83676495 65.91697272 820.44181618 62.94921875 815.7109375 C61.8201409 813.62102623 60.73327561 811.50781487 59.6875 809.375 C53.76954078 797.98943755 46.83108914 788.80138823 38.140625 779.38671875 C36 777 36 777 34.296875 774.76953125 C29.56081457 768.64254045 24.20512501 766.50574273 17 764 C15.9378125 763.60683594 14.875625 763.21367188 13.78125 762.80859375 C11.19423148 761.85179695 8.60145188 760.91665332 6 760 C6.28277618 762.89695169 6.57587413 765.7922295 6.875 768.6875 C6.95363281 769.50412109 7.03226563 770.32074219 7.11328125 771.16210938 C7.19707031 771.95810547 7.28085938 772.75410156 7.3671875 773.57421875 C7.47716064 774.66609497 7.47716064 774.66609497 7.58935547 775.7800293 C8.4603901 780.48889847 10.20718449 783.57921366 13.51953125 786.99609375 C14.21240234 787.71990234 14.90527344 788.44371094 15.61914062 789.18945312 C16.34294922 789.93130859 17.06675781 790.67316406 17.8125 791.4375 C19.23726179 792.91383688 20.6604721 794.39167281 22.08203125 795.87109375 C22.71343018 796.52005615 23.3448291 797.16901855 23.99536133 797.83764648 C30.51576917 804.87104707 35.87813896 812.66698654 41.25878906 820.58227539 C42.3322329 822.14655223 43.42043783 823.70080599 44.5234375 825.24438477 C51.14008102 834.5193598 55.52134994 841.20856965 53.68310547 852.79833984 C53.45768066 853.8548877 53.23225586 854.91143555 53 856 C51.96626825 863.33845474 52.16885173 868.72886531 54.25 875.8828125 C55.28414069 880.18095975 55.36452754 884.38858016 55.3984375 888.796875 C55.9994059 891.99683662 56.50461565 892.83515526 58.359375 895.32421875 C62.22333678 901.11256878 62.67944435 907.99749269 63.56835938 914.74536133 C63.8751612 917.06371812 64.21254575 919.3760749 64.5546875 921.68945312 C64.76482924 923.17943357 64.97322274 924.66966184 65.1796875 926.16015625 C65.27853241 926.84263931 65.37737732 927.52512238 65.47921753 928.22828674 C66.2214387 934.0073391 66.31216862 939.56500072 62.9375 944.5 C61.0175325 948.17856629 60.76617175 951.03100047 60.81640625 955.16015625 C60.82673889 956.11348595 60.82673889 956.11348595 60.83728027 957.08607483 C61.00414021 968.04101659 61.53913885 978.99204762 62 989.9375 C62.14389421 993.39216817 62.28687649 996.84686763 62.42797852 1000.301651 C62.51527034 1002.43537964 62.60420253 1004.56904204 62.69506836 1006.70262146 C62.77375401 1008.61277702 62.84610335 1010.52320823 62.91094971 1012.43388367 C62.96673254 1014.04134887 63.03727394 1015.64844459 63.12957764 1017.25422668 C63.32073191 1022.12332664 62.32687 1025.29281817 60.078125 1029.58203125 C59.77686707 1030.16288986 59.47560913 1030.74374847 59.16522217 1031.34220886 C58.53070711 1032.5570329 57.88828066 1033.76775528 57.23828125 1034.97436523 C56.24805515 1036.81611728 55.28661885 1038.67086747 54.328125 1040.52929688 C49.60533405 1049.50807367 45.80050179 1052.91595314 36.5625 1056.75 C35.81162109 1057.07871094 35.06074219 1057.40742187 34.28710938 1057.74609375 C30.17887731 1059.45876041 27.38429701 1060.5994565 23 1059 C20.6875 1057.9375 20.6875 1057.9375 19 1057 C18.67 1057.99 18.34 1058.98 18 1060 C16.35 1059.67 14.7 1059.34 13 1059 C13.04640625 1059.65226562 13.0928125 1060.30453125 13.140625 1060.9765625 C13.40020879 1067.26219858 12.51128906 1069.73306641 9 1075 C8.05492877 1079.3255183 7.53920103 1083.59652491 7 1088 C2.71 1087.34 -1.58 1086.68 -6 1086 C-3.20587345 1076.47456857 -3.20587345 1076.47456857 -1.9375 1073.55078125 C-0.05575881 1068.43087709 -0.10517628 1063.33829768 -1 1058 C-2.62340078 1054.90880939 -4.48720473 1052.45278698 -6.7265625 1049.77734375 C-9.1360202 1046.83383099 -10.94836724 1043.77527569 -12.875 1040.5 C-15.65783681 1036.22041829 -17.57304181 1034.22114808 -22.5 1032.75 C-23.99150442 1032.45349611 -25.49067474 1032.18557278 -27 1032 C-28.08857462 1023.41235579 -28.08857462 1023.41235579 -25.4765625 1020.0234375 C-24.19455661 1018.87748122 -22.89596759 1017.7498257 -21.58203125 1016.640625 C-19.62882098 1014.96535581 -19.62882098 1014.96535581 -19.75 1011.5625 C-18.62799807 1006.23299082 -15.18753113 1004.46266001 -10.95703125 1001.30859375 C-8 1000 -8 1000 -4.63671875 1000.78515625 C-3.33154297 1001.38650391 -3.33154297 1001.38650391 -2 1002 C-1.31974363 1000.00458132 -0.65509503 998.00382009 0 996 C0.28875 995.29875 0.5775 994.5975 0.875 993.875 C0.91625 993.25625 0.9575 992.6375 1 992 C0.34 991.38125 -0.32 990.7625 -1 990.125 C-1.66 989.42375 -2.32 988.7225 -3 988 C-2.8125 985.125 -2.8125 985.125 -2 982 C-0.73616561 976.8297684 -0.80663885 971.90385624 -3 967 C-3.81339844 966.39542969 -4.62679688 965.79085937 -5.46484375 965.16796875 C-8.79039425 962.32408504 -9.05583223 960.17915541 -9.9375 955.9375 C-11.34687562 949.65958093 -13.4915386 944.71802932 -17.0234375 939.26953125 C-18 937 -18 937 -17.2890625 934.82421875 C-16 933 -16 933 -14 931 C-13.08115592 927.67291743 -13.08115592 927.67291743 -14 924 C-16.22902031 922.16917361 -18.48991403 920.81790098 -21.03125 919.45703125 C-21.6809375 918.97621094 -22.330625 918.49539063 -23 918 C-23 916.68 -23 915.36 -23 914 C-25.97 914 -28.94 914 -32 914 C-32.33257813 914.99773437 -32.33257813 914.99773437 -32.671875 916.015625 C-33.78583506 918.51875878 -34.90856552 920.44084463 -36.453125 922.671875 C-36.906875 923.33703125 -37.360625 924.0021875 -37.828125 924.6875 C-38.7738542 926.05932697 -39.73748136 927.41899038 -40.71875 928.765625 C-43.38958784 932.71908133 -43.38958784 932.71908133 -43.81445312 937.34570312 C-43.4328626 938.89647675 -43.01731107 940.43935134 -42.56567383 941.97119141 C-41.79908283 944.72059633 -41.88050467 946.3708118 -43 949 C-45.22265625 951.2109375 -45.22265625 951.2109375 -48.0625 953.375 C-51.62778667 956.11435153 -54.86384382 958.84810291 -58 962.0625 C-61.84551339 965.40574225 -65.12146923 966.09172208 -70.171875 965.74609375 C-75.54104739 964.32964081 -79.50908746 961.26504795 -83 957 C-83.4921875 954.96875 -83.4921875 954.96875 -83.5 953 C-83.55094616 950.14701503 -83.93181424 949.09595298 -85.62109375 946.71875 C-90.73481586 941.82061483 -95.31621336 940.3275867 -102.3125 940.4375 C-104.69181444 940.54273015 -107.0638646 940.68926932 -109.43945312 940.85888672 C-112.14005762 941.00771866 -114.81137832 941.00340783 -117.515625 940.97265625 C-127.15031264 940.64133542 -127.15031264 940.64133542 -135.90625 943.8828125 C-137.29261305 945.32442915 -138.64425918 946.80070786 -139.94921875 948.31640625 C-142.8331119 950.6839452 -144.71947429 950.37037939 -148.375 950.0625 C-151.4082868 949.59614195 -154.08695539 948.97101487 -157 948 C-157.51456682 946.08152834 -157.93542274 944.13766031 -158.3125 942.1875 C-160.77406135 933.51025865 -166.38146088 929.61111355 -173.26513672 924.35498047 C-175.68791954 922.46271412 -177.93292829 920.40060253 -180.1875 918.3125 C-189.40314063 909.97952625 -199.16599865 902.37534153 -209.3137207 895.21435547 C-210.86340338 894.09836855 -212.35712028 892.90572857 -213.84375 891.70703125 C-218.19154891 889.3555608 -221.82359306 889.41068572 -226.6875 889.5 C-227.54150391 889.48453125 -228.39550781 889.4690625 -229.27539062 889.453125 C-230.09587891 889.45828125 -230.91636719 889.4634375 -231.76171875 889.46875 C-232.8748645 889.47551758 -232.8748645 889.47551758 -234.01049805 889.48242188 C-236.20156484 889.821029 -236.20156484 889.821029 -237.39453125 892.02148438 C-239 894 -239 894 -241.6887207 894.35546875 C-242.75695068 894.30003906 -243.82518066 894.24460937 -244.92578125 894.1875 C-259.93484045 893.11913175 -259.93484045 893.11913175 -273.15942383 898.84570312 C-275.28759891 900.97551149 -277.31398163 903.18808649 -279.33691406 905.41748047 C-282.33942063 908.27453384 -286.01049787 910.02628094 -289.625 912 C-294.94764472 915.0521067 -297.93415203 917.32397013 -300 923.375 C-300.78536273 926.75741447 -301 929.50243369 -301 933 C-297.58923066 932.21289938 -294.31538575 931.11723958 -291 930 C-289.2778498 932.43946057 -287.60017754 934.89545143 -285.9375 937.375 C-285.20950195 938.39400391 -285.20950195 938.39400391 -284.46679688 939.43359375 C-281.32915709 944.19568534 -280.42589075 947.50158064 -281.34057617 953.14404297 C-282.87595887 959.79376782 -284.81060641 966.32828346 -286.7878418 972.85742188 C-287.3644673 974.7736512 -287.92274584 976.69537145 -288.48046875 978.6171875 C-288.81973389 979.74753418 -289.15899902 980.87788086 -289.50854492 982.04248047 C-290.04674492 985.28130549 -289.8702848 986.36482299 -288 989 C-286.81596953 990.02865995 -285.60566888 991.02761965 -284.375 992 C-281.80793666 994.42887773 -281.06242564 995.57369157 -280.54296875 999.12109375 C-280.56056908 1002.10963005 -280.69256003 1005.0280803 -281 1008 C-287.625 1011 -287.625 1011 -291 1011 C-291.18433594 1012.12019531 -291.36867188 1013.24039063 -291.55859375 1014.39453125 C-293.74291296 1025.95036936 -293.74291296 1025.95036936 -296.98828125 1028.66015625 C-299.36740373 1029.41210688 -301.51945531 1029.72520912 -304 1030 C-305.21945312 1030.37125 -306.43890625 1030.7425 -307.6953125 1031.125 C-312.56815388 1032.38415859 -316.74381742 1031.46492074 -321.625 1030.625 C-329.98535522 1029.42362704 -334.40909385 1030.4505644 -341.2487793 1035.24438477 C-344.05659526 1037.1334622 -345.62208973 1038.01159827 -349.0546875 1037.90625 C-351.9375 1037.0625 -351.9375 1037.0625 -354.40234375 1036.03515625 C-357.76880065 1034.69363583 -360.35525282 1034.04372107 -364 1034 C-366.59793536 1035.69888852 -368.28074793 1037.06561557 -370.375 1039.25 C-370.90738281 1039.7346875 -371.43976563 1040.219375 -371.98828125 1040.71875 C-375.46794232 1044.22497337 -376.23652371 1046.5452848 -376.31640625 1051.48828125 C-376.46471062 1054.73714293 -376.54810897 1056.42928559 -378.58398438 1059.00048828 C-380.82639388 1060.82465412 -383.11981471 1062.39195926 -385.5625 1063.9375 C-387.29385203 1065.11589079 -389.02430503 1066.29560343 -390.75390625 1067.4765625 C-391.62934082 1068.05825195 -392.50477539 1068.63994141 -393.40673828 1069.23925781 C-397.38921448 1071.94323242 -401.18693425 1074.87687141 -405 1077.8125 C-411.18096406 1082.56252546 -415.5287109 1084.15809743 -423.2890625 1084.75390625 C-424.1069223 1084.81907944 -424.9247821 1084.88425262 -425.76742554 1084.95140076 C-427.50056619 1085.08851638 -429.23385853 1085.22372605 -430.96728516 1085.35717773 C-433.59453691 1085.56014657 -436.22108701 1085.77082479 -438.84765625 1085.98242188 C-440.53642166 1086.11505116 -442.22522277 1086.24722668 -443.9140625 1086.37890625 C-445.07707382 1086.47263268 -445.07707382 1086.47263268 -446.26358032 1086.56825256 C-450.15563743 1086.86302307 -454.04707006 1087.08048951 -457.94921875 1087.18041992 C-458.68052002 1087.20110031 -459.41182129 1087.2217807 -460.1652832 1087.24308777 C-462 1087 -462 1087 -463.8984375 1084.734375 C-464.62933594 1083.25710938 -464.62933594 1083.25710938 -465.375 1081.75 C-469.48709965 1076.21968921 -473.13515318 1074.97821646 -479.85473633 1073.74414062 C-495.294474 1071.53768514 -510.482559 1071.8750607 -526 1073 C-526.29535645 1073.75740479 -526.59071289 1074.51480957 -526.89501953 1075.29516602 C-529.61784164 1081.9602447 -529.61784164 1081.9602447 -533 1084 C-537.35901 1084.7206807 -541.63010574 1084.73714023 -546.02978516 1084.61743164 C-548.12643196 1084.56246246 -550.21911219 1084.55590404 -552.31640625 1084.55664062 C-562.37248421 1084.44556665 -562.37248421 1084.44556665 -564.76147461 1082.74926758 C-566.18776985 1080.73479775 -567.35757533 1078.69907514 -568.49609375 1076.5078125 C-574.28863955 1064.93421176 -574.28863955 1064.93421176 -584.0625 1057.0625 C-589.40967366 1055.53373886 -593.27648777 1056.4097468 -598.43359375 1058.20703125 C-602.5687834 1059.48472303 -605.83608547 1058.91341544 -610 1058 C-611.19238281 1057.76152344 -612.38476562 1057.52304688 -613.61328125 1057.27734375 C-621.72696895 1055.50041676 -627.20901386 1053.08584287 -633 1047 C-634.82323825 1045.34299042 -636.65689754 1043.69738586 -638.5 1042.0625 C-640.00049946 1040.70888678 -641.50067938 1039.35491884 -643 1038 C-641.57250019 1034.20950293 -639.83763458 1030.72877544 -637.875 1027.1875 C-637.06675781 1025.72376953 -637.06675781 1025.72376953 -636.2421875 1024.23046875 C-635.62730469 1023.12638672 -635.62730469 1023.12638672 -635 1022 C-635.66 1021.34 -636.32 1020.68 -637 1020 C-638.90214348 1020.31854077 -640.79684971 1020.68163317 -642.6875 1021.0625 C-654.15410598 1022.21275515 -664.22734717 1015.30562349 -674 1010 C-674.0928125 1010.62777344 -674.185625 1011.25554688 -674.28125 1011.90234375 C-674.5184375 1012.59457031 -674.755625 1013.28679688 -675 1014 C-677.69095042 1015.20131715 -680.2104901 1016.11134863 -683 1017 C-683.68449219 1017.29261719 -684.36898438 1017.58523438 -685.07421875 1017.88671875 C-691.02406573 1020.31724774 -696.04350695 1019.97403043 -702.375 1019.2265625 C-703.24125 1019.15179687 -704.1075 1019.07703125 -705 1019 C-706.65933148 1020.65933148 -706.04079252 1022.84881561 -706.0625 1025.125 C-706.32927612 1028.55307311 -706.54799636 1030.43084863 -708.703125 1033.14453125 C-710.74109112 1034.87680246 -712.80355294 1036.47445214 -715 1038 C-717.52311011 1039.60549147 -717.52311011 1039.60549147 -719 1042 C-719.07644987 1043.76967291 -719.11295046 1045.54121752 -719.125 1047.3125 C-719.32737264 1050.85166803 -719.47983604 1052.44290757 -721.92578125 1055.0625 C-724.54159111 1056.88502382 -727.21519699 1058.44945871 -730 1060 C-730.84820313 1060.58007812 -731.69640625 1061.16015625 -732.5703125 1061.7578125 C-738.36591824 1065.66394176 -742.13204127 1066.78976527 -749 1066 C-750.26714844 1065.94972656 -751.53429687 1065.89945313 -752.83984375 1065.84765625 C-763.54457286 1065.23356325 -763.54457286 1065.23356325 -767.5625 1061.828125 C-768.85301652 1060.20489718 -770.10777493 1058.55227259 -771.31640625 1056.8671875 C-772.81763567 1054.81965149 -772.81763567 1054.81965149 -775.02734375 1054.6328125 C-777.21062807 1054.90740557 -777.21062807 1054.90740557 -780 1056 C-779.93039062 1056.58007812 -779.86078125 1057.16015625 -779.7890625 1057.7578125 C-779.49683954 1061.97417236 -779.4575922 1065.15237661 -782.25 1068.5 C-786.65185488 1072.3489649 -792.42738262 1071.98196564 -798 1072 C-799.01502592 1075.64120409 -799.12631081 1078.37025045 -798 1082 C-795.35305119 1084.96394304 -792.20932896 1087.32749376 -788.97998047 1089.62402344 C-784.13290357 1093.21088502 -784.13290357 1093.21088502 -783.375 1097.7109375 C-784 1101 -784 1101 -787 1103.4375 C-788.485 1104.2109375 -788.485 1104.2109375 -790 1105 C-789.34515625 1105.35707031 -788.6903125 1105.71414063 -788.015625 1106.08203125 C-786 1108 -786 1108 -785.609375 1111.13671875 C-785.65578125 1112.30847656 -785.7021875 1113.48023438 -785.75 1114.6875 C-785.78609375 1115.86699219 -785.8221875 1117.04648438 -785.859375 1118.26171875 C-785.92898438 1119.61716797 -785.92898438 1119.61716797 -786 1121 C-791.8622591 1124.84160065 -796.51748679 1127.29965534 -803.625 1127.375 C-810.1444303 1127.53625799 -812.29113832 1129.68519794 -816.65625 1134.25390625 C-820.95410373 1137.45580728 -825.89958238 1136.62137067 -831 1136 C-832.33838733 1133.54429825 -833.67086232 1131.08570084 -835 1128.625 C-835.3815625 1127.92632813 -835.763125 1127.22765625 -836.15625 1126.5078125 C-839 1121.2265625 -839 1121.2265625 -839 1119 C-839.60585938 1119.45632813 -840.21171875 1119.91265625 -840.8359375 1120.3828125 C-847.51360787 1124.96472171 -847.51360787 1124.96472171 -851.46875 1125.05859375 C-854.04864016 1124.52670081 -856.49129212 1123.80322664 -859 1123 C-861.20590414 1122.44852397 -863.4142982 1121.90691769 -865.625 1121.375 C-867.4172701 1120.91903204 -869.20916094 1120.46155646 -871 1120 C-870.85892253 1118.54119891 -870.71197585 1117.08296449 -870.5625 1115.625 C-870.48128906 1114.81289062 -870.40007813 1114.00078125 -870.31640625 1113.1640625 C-870 1111 -870 1111 -869 1109 C-869.53367187 1108.75378906 -870.06734375 1108.50757813 -870.6171875 1108.25390625 C-883.75498972 1101.34040705 -883.75498972 1101.34040705 -885.875 1095.65234375 C-886.03969452 1094.1520796 -886.19488503 1092.65073699 -886.33984375 1091.1484375 C-887.56542817 1087.15984914 -890.98814262 1085.43293552 -894.39453125 1083.32421875 C-897.92330553 1081.53073377 -900.02994386 1080.76179663 -904 1081 C-904.51304687 1081.6496875 -905.02609375 1082.299375 -905.5546875 1082.96875 C-909.40697887 1086.16873644 -913.38677392 1085.72519618 -918.25 1085.6875 C-919.67155396 1085.67662354 -919.67155396 1085.67662354 -921.12182617 1085.66552734 C-926.13877095 1085.48866882 -930.19674586 1085.28464429 -934.3125 1082.125 C-936.96509897 1079.05655416 -937.42583192 1076.57328174 -937.5 1072.5625 C-937.37275748 1071.03786196 -937.21935117 1069.51413238 -937 1068 C-938.65 1068.33 -940.3 1068.66 -942 1069 C-942.103125 1070.11375 -942.20625 1071.2275 -942.3125 1072.375 C-942.539375 1073.57125 -942.76625 1074.7675 -943 1076 C-946.03525486 1078.02350324 -947.19426202 1078.32124018 -950.6875 1078.625 C-951.49574219 1078.69976563 -952.30398438 1078.77453125 -953.13671875 1078.8515625 C-953.75160156 1078.90054687 -954.36648438 1078.94953125 -955 1079 C-956.39545559 1075.69921081 -957.7686109 1072.38967139 -959.13476562 1069.07666016 C-960.1012555 1066.75697538 -961.09066019 1064.44754828 -962.078125 1062.13671875 C-968.95050616 1045.79121967 -968.95050616 1045.79121967 -968.4765625 1037.99609375 C-968.73566406 1037.00802734 -968.73566406 1037.00802734 -969 1036 C-969.95390625 1035.55398438 -970.9078125 1035.10796875 -971.890625 1034.6484375 C-975 1033 -975 1033 -976.3203125 1029.91796875 C-976.58585938 1028.68691406 -976.85140625 1027.45585938 -977.125 1026.1875 C-977.28782471 1025.52314941 -977.45064941 1024.85879883 -977.6184082 1024.17431641 C-978.41583351 1020.90483391 -979.04570588 1017.68873292 -979.53515625 1014.35546875 C-981.17113452 1005.6269859 -984.55996035 1002.13082372 -991.625 997.25 C-992.40254639 996.76772949 -993.18009277 996.28545898 -993.98120117 995.78857422 C-999.57416363 992.15074651 -999.57416363 992.15074651 -1000.96777344 988.38476562 C-1001.46273177 985.91258358 -1001.81728046 983.51317315 -1002 981 C-993.25 976 -993.25 976 -991 976 C-991 975.34 -991 974.68 -991 974 C-1004.22288749 974.78689295 -1013.35195103 978.43518272 -1024.60791016 985.35888672 C-1033.02026556 990.38687914 -1039.24331749 991.72123764 -1049 992 C-1050.485 984.575 -1050.485 984.575 -1052 977 C-1049.69 975.35 -1047.38 973.7 -1045 972 C-1045.99 971.34 -1046.98 970.68 -1048 970 C-1051.11785113 970.64644661 -1051.11785113 970.64644661 -1052 973 C-1055.92708592 972.41820949 -1058.28005389 970.86697023 -1061 968 C-1061.72083017 965.26815812 -1061.85754381 962.84912371 -1062 960 C-1065.00259517 959.66781808 -1065.00259517 959.66781808 -1066.6875 961.5 C-1067.3371875 962.2425 -1067.3371875 962.2425 -1068 963 C-1069.41791408 962.54554036 -1070.83428046 962.08625056 -1072.25 961.625 C-1073.43335938 961.24214844 -1073.43335938 961.24214844 -1074.640625 960.8515625 C-1076.86627958 960.04826333 -1078.90931672 959.10288338 -1081 958 C-1080.09516618 953.40131515 -1079.0963607 949.0325919 -1077.3125 944.6875 C-1076.00432355 941.01214712 -1075.80266804 940.41308421 -1077 937 C-1078.46808501 934.18498756 -1078.46808501 934.18498756 -1081 932 C-1082.96007492 931.62949404 -1082.96007492 931.62949404 -1085.0625 931.5625 C-1086.361875 931.376875 -1087.66125 931.19125 -1089 931 C-1090.8806287 928.23782659 -1092 926.37036422 -1092 923 C-1094.93713834 922.72454972 -1097.87168002 922.47880522 -1100.8125 922.25 C-1101.64587891 922.16878906 -1102.47925781 922.08757813 -1103.33789062 922.00390625 C-1105.61967141 921.83895824 -1107.72786956 921.72557273 -1110 922 C-1111.82956724 923.82793284 -1111.82956724 923.82793284 -1113 926 C-1117.83589521 927.76456073 -1123.91158493 928.7100114 -1129 928 C-1129.71929688 927.31035156 -1130.43859375 926.62070312 -1131.1796875 925.91015625 C-1133.94577893 923.61887149 -1133.94577893 923.61887149 -1137.70703125 924.22265625 C-1139.078365 924.48832207 -1140.44688427 924.76885352 -1141.8125 925.0625 C-1149.093325 926.35437887 -1149.093325 926.35437887 -1152.6484375 924.96484375 C-1153.94643174 924.03237662 -1155.222196 923.06754257 -1156.46484375 922.0625 C-1158.07690717 920.67922308 -1158.07690717 920.67922308 -1160.75 921.5 C-1163.01481723 922.93171192 -1163.01481723 922.93171192 -1164.875 924.6875 C-1168.11020721 926.68571622 -1170.39949218 925.83583217 -1174 925 C-1174.84667236 924.48179687 -1174.84667236 924.48179687 -1175.71044922 923.953125 C-1179.12819295 922.53034066 -1182.49856327 922.84238966 -1186.1328125 922.9375 C-1187.76040512 922.94644202 -1189.38801313 922.95287066 -1191.015625 922.95703125 C-1193.56448257 922.9712133 -1196.10931074 922.99955528 -1198.65722656 923.07177734 C-1213.01663546 923.44376826 -1213.01663546 923.44376826 -1218.19824219 919.671875 C-1220.8046875 916.875 -1220.8046875 916.875 -1222.89013672 914.0546875 C-1223.5863916 913.37664063 -1224.28264648 912.69859375 -1225 912 C-1228.21438652 912.07014338 -1228.21438652 912.07014338 -1231 913 C-1232.01060591 915.72863595 -1232.12729724 916.70796516 -1230.9375 919.4375 C-1229.73088356 922.73558494 -1230.59471461 923.89385258 -1232 927 C-1231.13375 927.92232422 -1231.13375 927.92232422 -1230.25 928.86328125 C-1229.13625 930.07564453 -1229.13625 930.07564453 -1228 931.3125 C-1227.2575 932.11300781 -1226.515 932.91351562 -1225.75 933.73828125 C-1224 936 -1224 936 -1224 939 C-1230.95848641 943.02314475 -1230.95848641 943.02314475 -1234.8125 942.9375 C-1237 942 -1237 942 -1238.3125 940.453125 C-1240.64137176 938.44770765 -1242.16492383 938.69473729 -1245.1875 938.8125 C-1246.53908203 938.85310547 -1246.53908203 938.85310547 -1247.91796875 938.89453125 C-1248.60503906 938.92933594 -1249.29210938 938.96414063 -1250 939 C-1249.505 940.0828125 -1249.505 940.0828125 -1249 941.1875 C-1247.91650842 944.23482006 -1247.37961657 945.82053491 -1248 949 C-1249.58695414 951.69282375 -1251.24752273 953.49473899 -1254 955 C-1257.4584102 955.20585775 -1260.62394486 954.73392503 -1264 954 C-1264.92125306 956.21035734 -1264.92125306 956.21035734 -1265 959 C-1263.12790156 961.93332478 -1263.12790156 961.93332478 -1260.4375 964.75 C-1259.50825823 965.79902812 -1258.5824855 966.8511391 -1257.66015625 967.90625 C-1257.20527832 968.42445313 -1256.75040039 968.94265625 -1256.28173828 969.4765625 C-1253.52587021 972.75210855 -1251.25511596 976.36981334 -1249 980 C-1250.33739126 984.63261303 -1251.89115949 989.20120776 -1256 992 C-1263.13555884 993.6282671 -1270.7800589 992.72042396 -1278 992 C-1282 985.25 -1282 985.25 -1282 983 C-1282.90492188 983.57621094 -1282.90492188 983.57621094 -1283.828125 984.1640625 C-1284.62734375 984.64617188 -1285.4265625 985.12828125 -1286.25 985.625 C-1287.03890625 986.11226562 -1287.8278125 986.59953125 -1288.640625 987.1015625 C-1291 988 -1291 988 -1293.0078125 987.48828125 C-1295.68145172 985.49091548 -1297.55094664 983.17414244 -1299.625 980.5625 C-1300.40101563 979.59441406 -1301.17703125 978.62632812 -1301.9765625 977.62890625 C-1305.00743445 973.69111316 -1306.2535823 971.76291865 -1306.125 966.8125 C-1306.10695313 965.91144531 -1306.08890625 965.01039063 -1306.0703125 964.08203125 C-1306.03550781 963.05142578 -1306.03550781 963.05142578 -1306 962 C-1312.295458 961.06277697 -1312.295458 961.06277697 -1318.5625 961.875 C-1322.65910968 962.02396762 -1323.21231235 961.37387397 -1326.1875 958.75 C-1327.13689453 957.81414062 -1327.13689453 957.81414062 -1328.10546875 956.859375 C-1331.57174548 953.21939077 -1331.57174548 953.21939077 -1336.19140625 951.890625 C-1336.97386719 952.00921875 -1337.75632812 952.1278125 -1338.5625 952.25 C-1339.43519531 952.35699219 -1340.30789063 952.46398437 -1341.20703125 952.57421875 C-1343.10787291 952.86399741 -1345.00184635 953.20199608 -1346.88671875 953.58203125 C-1349.76543379 954.06508985 -1352.10357335 954.39888192 -1355 954 C-1357.70952361 951.7029087 -1359.37326743 949.13677967 -1361 946 C-1363.9719385 947.12451727 -1366.33440687 948.22293791 -1369 950 C-1370.98 948.35 -1372.96 946.7 -1375 945 C-1374.5798094 942.47885641 -1374.22254185 940.38903612 -1372.9453125 938.15625 C-1370.20947129 931.91581881 -1373.34039314 923.30650608 -1375 917 C-1375 915.68 -1375 914.36 -1375 913 C-1375.52722656 912.77570312 -1376.05445313 912.55140625 -1376.59765625 912.3203125 C-1379.19719245 910.89162431 -1381.36755027 909.12372283 -1383.67138672 907.26708984 C-1390.33506558 902.01462968 -1394.87855879 899.91587007 -1403.6484375 900.6484375 C-1404.42445313 900.76445313 -1405.20046875 900.88046875 -1406 901 C-1406.67057887 899.2097939 -1407.3363469 897.41778511 -1408 895.625 C-1408.37125 894.62726562 -1408.7425 893.62953125 -1409.125 892.6015625 C-1410 890 -1410 890 -1410 888 C-1413.91775816 888.27805175 -1417.83388209 888.57479416 -1421.75 888.875 C-1423.41675781 888.99294922 -1423.41675781 888.99294922 -1425.1171875 889.11328125 C-1426.18710938 889.19707031 -1427.25703125 889.28085937 -1428.359375 889.3671875 C-1429.34389648 889.44050293 -1430.32841797 889.51381836 -1431.34277344 889.58935547 C-1433.98881637 889.99827169 -1435.74817753 890.57058785 -1438 892 C-1438.33 892.66 -1438.66 893.32 -1439 894 C-1441.71446979 894.31241455 -1444.33909361 894.51336592 -1447.0625 894.625 C-1448.20041992 894.68300781 -1448.20041992 894.68300781 -1449.36132812 894.7421875 C-1451.24047195 894.83673562 -1453.12020336 894.91946756 -1455 895 C-1456.98 899.29 -1458.96 903.58 -1461 908 C-1465.46931186 907.10613763 -1467.94488562 906.12759489 -1471.8125 903.9375 C-1472.78832031 903.38964844 -1473.76414062 902.84179688 -1474.76953125 902.27734375 C-1475.87361328 901.64505859 -1475.87361328 901.64505859 -1477 901 C-1476.40380045 896.13103697 -1475.43023178 891.67209049 -1474 887 C-1476.36326675 886.67080583 -1476.36326675 886.67080583 -1479 887 C-1480.79106379 888.70444706 -1480.79106379 888.70444706 -1482.25 890.9375 C-1485.37496761 894.86251403 -1485.37496761 894.86251403 -1488.30859375 895.5078125 C-1489.48615234 895.53488281 -1489.48615234 895.53488281 -1490.6875 895.5625 C-1493.91517471 895.57551019 -1493.91517471 895.57551019 -1496.42578125 897.3828125 C-1498.66125236 901.13840397 -1499.36457112 904.68030558 -1500 909 C-1500.88042969 909.01417969 -1501.76085938 909.02835938 -1502.66796875 909.04296875 C-1510.07684604 909.02398188 -1510.07684604 909.02398188 -1516.375 912.3125 C-1518.14434533 914.7444243 -1518.14434533 914.7444243 -1518.0625 916.875 C-1516.92047006 919.25338608 -1516.92047006 919.25338608 -1514.875 922.3125 C-1513.14863073 925.23356685 -1513.00053312 926.01546054 -1513.125 929.625 C-1513.88627594 932.56135005 -1514.83654427 935.20770626 -1516 938 C-1516 938.99 -1516 939.98 -1516 941 C-1513.27280038 943.1071773 -1510.40615561 944.91253645 -1507.50390625 946.76953125 C-1504.3041962 949.61981899 -1504.26399907 950.75681494 -1504 955 C-1503.86766968 956.24849731 -1503.86766968 956.24849731 -1503.73266602 957.5222168 C-1503.42499767 960.49176342 -1503.20799333 963.45941362 -1503 966.4375 C-1502.89816406 967.44876953 -1502.79632812 968.46003906 -1502.69140625 969.50195312 C-1502.22088507 976.86224873 -1502.22088507 976.86224873 -1504.5625 980.28173828 C-1506.29391041 982.01620309 -1508.02650013 983.55039638 -1510 985 C-1511.9375 984.1875 -1511.9375 984.1875 -1514 983 C-1514.33 982.01 -1514.66 981.02 -1515 980 C-1515.66 980 -1516.32 980 -1517 980 C-1516.39929687 980.73605469 -1515.79859375 981.47210937 -1515.1796875 982.23046875 C-1514.41914062 983.20628906 -1513.65859375 984.18210937 -1512.875 985.1875 C-1512.10929687 986.15042969 -1511.34359375 987.11335937 -1510.5546875 988.10546875 C-1509 991 -1509 991 -1509.5703125 993.61328125 C-1510.04210938 994.40089844 -1510.51390625 995.18851563 -1511 996 C-1511.42539063 996.75667969 -1511.85078125 997.51335938 -1512.2890625 998.29296875 C-1514 1000 -1514 1000 -1516.4609375 1000.42578125 C-1519.64230589 1000.30210875 -1522.82082978 1000.17254157 -1526 1000 C-1527.07507812 999.99097656 -1528.15015625 999.98195313 -1529.2578125 999.97265625 C-1537.69319076 999.71857859 -1543.76706651 997.26156622 -1551 993 C-1551.63808594 993.85464844 -1552.27617188 994.70929687 -1552.93359375 995.58984375 C-1553.76818707 996.70576066 -1554.60282478 997.82164436 -1555.4375 998.9375 C-1555.85837891 999.50146484 -1556.27925781 1000.06542969 -1556.71289062 1000.64648438 C-1559.88671875 1004.88671875 -1559.88671875 1004.88671875 -1561 1006 C-1563.69654854 1006.07319621 -1566.36691458 1006.09242537 -1569.0625 1006.0625 C-1569.82111328 1006.05798828 -1570.57972656 1006.05347656 -1571.36132812 1006.04882812 C-1573.24091871 1006.0370068 -1575.12046899 1006.01907078 -1577 1006 C-1577.41831404 1009.28999282 -1577.41831404 1009.28999282 -1577 1013 C-1575.73542969 1014.22589844 -1575.73542969 1014.22589844 -1574.4453125 1015.4765625 C-1572 1018 -1572 1018 -1571.9296875 1021.4609375 C-1572.20067347 1022.77549701 -1572.51891304 1024.08089715 -1572.875 1025.375 C-1573.05264893 1026.06601807 -1573.23029785 1026.75703613 -1573.41333008 1027.46899414 C-1576.26138872 1036.74333362 -1583.29921214 1043.29921214 -1590 1050 C-1590.10732319 1051.93497393 -1590.12942958 1053.87455709 -1590.125 1055.8125 C-1590.1237915 1056.4410791 -1590.12258301 1057.0696582 -1590.12133789 1057.71728516 C-1590.05651817 1066.38717213 -1589.65029063 1075.05348323 -1589.26806641 1083.71411133 C-1589.21956543 1084.89900146 -1589.17106445 1086.0838916 -1589.12109375 1087.3046875 C-1589.0739624 1088.37702637 -1589.02683105 1089.44936523 -1588.97827148 1090.55419922 C-1589 1093 -1589 1093 -1590 1094 C-1592.14087788 1094.29997524 -1594.29025113 1094.53972197 -1596.44140625 1094.75390625 C-1597.74658203 1094.88603516 -1599.05175781 1095.01816406 -1600.39648438 1095.15429688 C-1601.78514694 1095.29045954 -1603.17381895 1095.42652599 -1604.5625 1095.5625 C-1605.95511875 1095.70206915 -1607.34769752 1095.84203791 -1608.74023438 1095.98242188 C-1612.15978192 1096.32555986 -1615.57968973 1096.66456409 -1619 1097 C-1620.5688847 1092.65319931 -1622.02999958 1088.38614897 -1622.78125 1083.81640625 C-1624.44089526 1073.79546583 -1627.52547953 1066.36982862 -1633.37890625 1058.01391602 C-1637.02386401 1052.68794194 -1637.02386401 1052.68794194 -1636.88671875 1048.734375 C-1636.59410156 1047.83203125 -1636.30148437 1046.9296875 -1636 1046 C-1634.94902069 1042.53639524 -1635.14405908 1040.29714765 -1635.9375 1036.75 C-1636.13214844 1035.85796875 -1636.32679687 1034.9659375 -1636.52734375 1034.046875 C-1636.68332031 1033.37140625 -1636.83929687 1032.6959375 -1637 1032 C-1638.093125 1031.855625 -1639.18625 1031.71125 -1640.3125 1031.5625 C-1646.71831183 1030.00094089 -1651.16405818 1025.23596697 -1656 1021 C-1657.35931641 1020.06027344 -1657.35931641 1020.06027344 -1658.74609375 1019.1015625 C-1661.65211626 1016.39196093 -1661.82222822 1014.64658794 -1662.375 1010.75 C-1663.93067282 1002.62309719 -1665.89614666 993.72371611 -1671 987 C-1673.73816143 985.33968328 -1673.73816143 985.33968328 -1676.8125 984.375 C-1681.68090751 982.55843003 -1683.46538695 980.62886487 -1685.609375 976.046875 C-1686.87248521 973.08899649 -1688.06891184 970.10899774 -1689.26513672 967.12353516 C-1692.65256389 958.97923727 -1695.97697258 955.00483898 -1704 951 C-1704.99 950.34 -1705.98 949.68 -1707 949 C-1707.42895508 945.97827148 -1707.42895508 945.97827148 -1707.51953125 942.12109375 C-1707.57282522 940.71025822 -1707.62688733 939.29945153 -1707.68164062 937.88867188 C-1707.75118354 935.67281504 -1707.81208977 933.45745026 -1707.85766602 931.2409668 C-1708.05143784 922.91065074 -1708.33081859 916.59359624 -1713.73706055 909.81860352 C-1715 908 -1715 908 -1715.15625 904.671875 C-1714.83140625 903.22554687 -1714.83140625 903.22554687 -1714.5 901.75 C-1713.71434769 898.8445288 -1713.71434769 898.8445288 -1714 896 C-1715.51424475 894.8064666 -1717.03200335 893.61634094 -1718.58496094 892.47363281 C-1720.89538843 890.06753544 -1720.84155964 887.63954676 -1720.93457031 884.41113281 C-1720.91491211 883.61545898 -1720.89525391 882.81978516 -1720.875 882 C-1720.8656543 881.19143555 -1720.85630859 880.38287109 -1720.84667969 879.54980469 C-1720.66318521 875.91721074 -1720.46003441 873.65225536 -1718.3359375 870.640625 C-1716.12647303 869.16764868 -1714.64023326 868.32762019 -1712 868 C-1708.56317713 869.2761732 -1706.48379475 871.33879134 -1704 874 C-1701.0280615 872.87548273 -1698.66559313 871.77706209 -1696 870 C-1692.64453125 869.8046875 -1692.64453125 869.8046875 -1688.8125 869.875 C-1687.54019531 869.89304687 -1686.26789063 869.91109375 -1684.95703125 869.9296875 C-1683.49330078 869.96449219 -1683.49330078 869.96449219 -1682 870 C-1682.13019531 869.35933594 -1682.26039062 868.71867188 -1682.39453125 868.05859375 C-1682.60142578 866.76115234 -1682.60142578 866.76115234 -1682.8125 865.4375 C-1682.96332031 864.59058594 -1683.11414062 863.74367188 -1683.26953125 862.87109375 C-1682.87656124 858.68510881 -1680.61323964 856.1826209 -1678 853 C-1676.94872925 853.31807617 -1676.94872925 853.31807617 -1675.8762207 853.64257812 C-1672.69040093 854.60214651 -1669.50153263 855.55116663 -1666.3125 856.5 C-1664.65831055 857.00080078 -1664.65831055 857.00080078 -1662.97070312 857.51171875 C-1661.3706543 857.98544922 -1661.3706543 857.98544922 -1659.73828125 858.46875 C-1658.75899658 858.76201172 -1657.77971191 859.05527344 -1656.77075195 859.35742188 C-1653.66225952 860.18826568 -1653.66225952 860.18826568 -1649 860 C-1653.62 857.69 -1658.24 855.38 -1663 853 C-1662.28227656 849.41138278 -1661.7381043 846.94576496 -1660.25 843.75 C-1659.79367187 842.72132813 -1659.79367187 842.72132813 -1659.328125 841.671875 C-1657.43972863 839.29471722 -1655.9784007 839.34495601 -1653 839 C-1651.9790625 838.81695313 -1650.958125 838.63390625 -1649.90625 838.4453125 C-1641.07414592 837.6147706 -1641.07414592 837.6147706 -1637.08300781 840.28027344 C-1632.96736724 843.80826952 -1629.44843442 847.82980024 -1626 852 C-1625.21625 851.505 -1624.4325 851.01 -1623.625 850.5 C-1621 849 -1621 849 -1619 849 C-1619.18820312 848.31035156 -1619.37640625 847.62070312 -1619.5703125 846.91015625 C-1620.46170372 842.3339295 -1620.85552819 839.32847187 -1618.26171875 835.30078125 C-1612.68307959 829.77552619 -1608.0802978 827.99083461 -1600.2734375 827.90234375 C-1599.14808594 827.95068359 -1599.14808594 827.95068359 -1598 828 C-1596.50902668 825.45965471 -1596.50902668 825.45965471 -1596 822 C-1597.14810429 818.85884264 -1598.96284086 816.20948399 -1600.8125 813.4375 C-1601.56623901 812.24169312 -1601.56623901 812.24169312 -1602.33520508 811.02172852 C-1604.65042782 807.38946946 -1607.03007214 803.87904854 -1609.7421875 800.53125 C-1616.76760574 791.64286143 -1617.05492415 784.87483539 -1616 774 C-1616.87591797 773.57460937 -1616.87591797 773.57460937 -1617.76953125 773.140625 C-1624.58258294 769.65654252 -1628.88342125 765.27476913 -1633.0625 758.9375 C-1633.46879639 758.33583008 -1633.87509277 757.73416016 -1634.29370117 757.11425781 C-1635.9923543 754.41453969 -1637.01231072 752.53089989 -1636.9375 749.3046875 C-1635.91672236 746.7952758 -1634.73427646 745.20515678 -1632.9375 743.1875 C-1630.27961468 739.75734775 -1629.07703252 737.37947149 -1629.39453125 733.01171875 C-1630.3734875 729.75905766 -1632.35505412 727.46654679 -1634.58984375 724.95703125 C-1636.32444268 722.54973467 -1636.78617588 720.95790028 -1637 718 C-1636.22265625 715.32421875 -1636.22265625 715.32421875 -1635.0625 712.6875 C-1634.68222656 711.80449219 -1634.30195312 710.92148437 -1633.91015625 710.01171875 C-1633.60980469 709.34785156 -1633.30945312 708.68398438 -1633 708 C-1630.03 708 -1627.06 708 -1624 708 C-1623.72279124 705.60455476 -1623.47774272 703.21272966 -1623.25 700.8125 C-1623.16878906 700.13896484 -1623.08757812 699.46542969 -1623.00390625 698.77148438 C-1622.67196225 694.99101104 -1622.79332951 693.29820761 -1624.984375 690.13671875 C-1625.64953125 689.43160156 -1626.3146875 688.72648438 -1627 688 C-1627 687.34 -1627 686.68 -1627 686 C-1627.80824219 685.87882813 -1628.61648438 685.75765625 -1629.44921875 685.6328125 C-1630.51785156 685.46523438 -1631.58648438 685.29765625 -1632.6875 685.125 C-1633.74324219 684.96257813 -1634.79898437 684.80015625 -1635.88671875 684.6328125 C-1641.02628432 683.58813292 -1644.17303583 682.437823 -1647.375 678.1875 C-1647.89835937 677.52105469 -1648.42171875 676.85460937 -1648.9609375 676.16796875 C-1650 674 -1650 674 -1649.953125 671.59765625 C-1648.69274622 668.16260753 -1646.78295635 665.9998716 -1644.375 663.25 C-1643.46333532 662.1992235 -1642.55319024 661.14712675 -1641.64453125 660.09375 C-1641.1954541 659.57554687 -1640.74637695 659.05734375 -1640.28369141 658.5234375 C-1637.86127851 655.64860744 -1635.67157497 652.59402527 -1633.47265625 649.546875 C-1632.74369141 648.78117188 -1632.74369141 648.78117188 -1632 648 C-1631.01 648 -1630.02 648 -1629 648 C-1627.53790908 649.80238033 -1626.15247019 651.66756871 -1624.8125 653.5625 C-1621.92334929 657.58822395 -1621.92334929 657.58822395 -1617.6328125 659.5078125 C-1615.18720492 659.22072041 -1615.18720492 659.22072041 -1612 658 C-1611.94570041 656.25034642 -1611.90707177 654.50020213 -1611.875 652.75 C-1611.85179687 651.77546875 -1611.82859375 650.8009375 -1611.8046875 649.796875 C-1611.78935738 647.04064343 -1611.78935738 647.04064343 -1613.1015625 645.1171875 C-1614.28760779 642.322246 -1613.6074174 640.35099704 -1612.95532227 637.46582031 C-1611.821195 632.25795655 -1611.04927236 628.5592711 -1613.91015625 623.8671875 C-1616.48638262 621.32510846 -1619.08407617 619.1402798 -1622 617 C-1623.66845637 615.66890688 -1625.33568488 614.33626747 -1627 613 C-1626.51421457 609.87709365 -1626.0013988 607.00419641 -1625 604 C-1625.88629336 601.90090285 -1625.88629336 601.90090285 -1627.30859375 599.71875 C-1628.05786133 598.45417969 -1628.05786133 598.45417969 -1628.82226562 597.1640625 C-1629.88420533 595.41256823 -1630.95685453 593.66751455 -1632.04101562 591.9296875 C-1635.48599699 586.05947473 -1636.29678281 582.16545708 -1635.92749023 575.40087891 C-1635.80503696 572.75474442 -1635.80503696 572.75474442 -1637.86328125 570.02734375 C-1638.67152344 569.33769531 -1639.47976563 568.64804687 -1640.3125 567.9375 C-1641.11300781 567.22464844 -1641.91351562 566.51179687 -1642.73828125 565.77734375 C-1645.07358972 563.89463306 -1645.07358972 563.89463306 -1648 562 C-1647.25 554.25 -1647.25 554.25 -1645 552 C-1637.36009506 549.24710863 -1628.03924528 547.24177657 -1620 549 C-1619.54109375 549.81855469 -1619.0821875 550.63710938 -1618.609375 551.48046875 C-1617.81273437 552.72763672 -1617.81273437 552.72763672 -1617 554 C-1614.24679275 554.54462351 -1612.0685919 554.78933956 -1609.3125 554.8125 C-1608.61060547 554.83763672 -1607.90871094 554.86277344 -1607.18554688 554.88867188 C-1605.45763219 554.94744448 -1603.7287557 554.9766097 -1602 555 C-1601.71382812 554.38511719 -1601.42765625 553.77023437 -1601.1328125 553.13671875 C-1600 551 -1600 551 -1597.875 548.8125 C-1595.78811164 545.68216747 -1595.90099453 545.294634 -1596.2734375 541.7890625 C-1596.36423906 536.95851725 -1594.9259041 534.75634239 -1591.63256836 531.33496094 C-1591.0113208 530.75004883 -1590.39007324 530.16513672 -1589.75 529.5625 C-1589.11392822 528.93762695 -1588.47785645 528.31275391 -1587.82250977 527.66894531 C-1583.92893913 524.08055299 -1581.39936412 522.33042906 -1575.9375 522.25 C-1572.51759788 522.12622338 -1570.68846415 521.72144565 -1568.29785156 519.21630859 C-1565.83712903 516.04442222 -1563.59430302 512.77955501 -1561.45092773 509.38574219 C-1560.94247314 508.5868457 -1560.43401855 507.78794922 -1559.91015625 506.96484375 C-1559.46808838 506.2287085 -1559.02602051 505.49257324 -1558.57055664 504.73413086 C-1556.50003008 502.44795798 -1555.02343047 502.30589386 -1552 502 C-1549.56263899 501.95087066 -1547.12510687 501.90985853 -1544.6875 501.875 C-1539.52797839 501.6970424 -1536.2127551 501.05117317 -1532.4375 497.3125 C-1531.63119141 496.31669922 -1531.63119141 496.31669922 -1530.80859375 495.30078125 C-1529.91333984 494.65689453 -1529.91333984 494.65689453 -1529 494 C-1522.39435311 495.32845881 -1516.69352265 499.58388641 -1511 503 C-1511.33 494.42 -1511.66 485.84 -1512 477 C-1510.02273926 476.98541748 -1508.04547852 476.97083496 -1506.00830078 476.95581055 C-1499.44237335 476.90396138 -1492.8766859 476.83862328 -1486.31097603 476.76428509 C-1482.33396596 476.71974224 -1478.35705454 476.6804518 -1474.37988281 476.65356445 C-1470.5347035 476.6273695 -1466.68990715 476.58685585 -1462.84496689 476.53681374 C-1461.38516921 476.52025359 -1459.92530547 476.50867226 -1458.4654274 476.50238609 C-1450.96870776 476.46686945 -1444.05281514 476.23062529 -1436.93087769 473.63825989 C-1435 473 -1435 473 -1432 473 C-1431.97494385 472.33991943 -1431.9498877 471.67983887 -1431.92407227 470.99975586 C-1431.80728248 467.97884631 -1431.68493554 464.95818578 -1431.5625 461.9375 C-1431.50352539 460.37999023 -1431.50352539 460.37999023 -1431.44335938 458.79101562 C-1431.22333656 453.45969359 -1430.8883816 448.26310107 -1430 443 C-1429.20335937 442.97421875 -1428.40671875 442.9484375 -1427.5859375 442.921875 C-1426.52632812 442.86515625 -1425.46671875 442.8084375 -1424.375 442.75 C-1423.33085938 442.70359375 -1422.28671875 442.6571875 -1421.2109375 442.609375 C-1417.09623158 441.82848191 -1415.06151606 440.89412382 -1412 438 C-1410.92388101 434.78890297 -1410.58658358 431.54064989 -1410.1875 428.1875 C-1408.42122039 417.12025526 -1408.42122039 417.12025526 -1403.875 413.625 C-1402.28128827 412.69422992 -1400.65330483 411.82026407 -1399 411 C-1397.14200036 409.86039243 -1395.28775253 408.71464306 -1393.4375 407.5625 C-1391.96185286 406.70226734 -1390.48398041 405.84577589 -1389 405 C-1387.35 405.99 -1385.7 406.98 -1384 408 C-1383.57178955 407.19369141 -1383.1435791 406.38738281 -1382.70239258 405.55664062 C-1381.09255472 402.52871063 -1379.48011488 399.5021955 -1377.8659668 396.4765625 C-1377.17158078 395.17372375 -1376.47819725 393.87035011 -1375.78588867 392.56640625 C-1373.55276925 388.36136983 -1371.28668675 384.17616144 -1369 380 C-1368.53376221 379.11836182 -1368.06752441 378.23672363 -1367.5871582 377.32836914 C-1364.71623928 372.21789521 -1364.71623928 372.21789521 -1361.31640625 371.18359375 C-1359.95322266 371.30927734 -1359.95322266 371.30927734 -1358.5625 371.4375 C-1357.60859375 371.50839844 -1356.6546875 371.57929688 -1355.671875 371.65234375 C-1349.54703993 372.44928866 -1349.54703993 372.44928866 -1347 373 C-1345.06290362 369.74246076 -1344.76284555 367.34390072 -1344.8046875 363.578125 C-1344.81113281 362.55332031 -1344.81757812 361.52851563 -1344.82421875 360.47265625 C-1344.84097656 359.40917969 -1344.85773438 358.34570312 -1344.875 357.25 C-1344.88402344 356.17105469 -1344.89304687 355.09210938 -1344.90234375 353.98046875 C-1344.92588695 351.32008722 -1344.95877201 348.66015664 -1345 346 C-1341.41900484 344.2289602 -1337.82637525 342.48447367 -1334.22119141 340.76318359 C-1332.99770085 340.17457494 -1331.7775657 339.57893633 -1330.56103516 338.97607422 C-1328.80758624 338.10866899 -1327.04058381 337.26883519 -1325.2734375 336.4296875 C-1324.21560059 335.91647949 -1323.15776367 335.40327148 -1322.06787109 334.87451172 C-1318.252681 333.78697305 -1316.56566979 334.37596448 -1313 336 C-1311.11987305 337.05322266 -1311.11987305 337.05322266 -1309.51171875 338.1640625 C-1299.44071643 344.70731701 -1291.91006648 346.19395468 -1280 345 C-1277.70387244 354.41002278 -1277.70387244 354.41002278 -1278 359 C-1280.97 359.66 -1283.94 360.32 -1287 361 C-1287.33 363.31 -1287.66 365.62 -1288 368 C-1287.113125 368.226875 -1286.22625 368.45375 -1285.3125 368.6875 C-1277.81028706 371.66007494 -1275.33036877 377.88395661 -1272.24609375 384.85546875 C-1271.98038574 385.47599121 -1271.71467773 386.09651367 -1271.44091797 386.73583984 C-1270.63092253 388.61128709 -1269.78381494 390.46672915 -1268.93359375 392.32421875 C-1264.64247081 402.23088529 -1264.73609795 408.80054741 -1267.1875 419.0625 C-1268.25780157 424.19341136 -1268.26290145 429.19133442 -1266 434 C-1265.00484375 434.72574219 -1264.0096875 435.45148438 -1262.984375 436.19921875 C-1260.24167608 438.35212119 -1259.4613108 439.90013394 -1258.921875 443.34375 C-1258.04660467 456.7157904 -1261.75826126 466.47173402 -1269.99609375 476.99609375 C-1273.42114674 480.79294798 -1275.94580856 482.40036258 -1281.1875 482.8125 C-1283.46386287 482.5929395 -1285.73632748 482.32530211 -1288 482 C-1289.7720558 482.24118238 -1291.54300117 482.49072298 -1293.3125 482.75 C-1301.18536963 482.75 -1307.80318762 476.87859063 -1313.93286133 472.46386719 C-1316.10734731 470.87108678 -1316.10734731 470.87108678 -1319.04150391 469.28369141 C-1322.61050886 466.52874238 -1323.81111524 463.78622649 -1325.25390625 459.6640625 C-1325.65620705 458.59035904 -1325.65620705 458.59035904 -1326.06663513 457.4949646 C-1326.91723249 455.2113655 -1327.74008003 452.91887704 -1328.5625 450.625 C-1329.11734861 449.1230347 -1329.67397525 447.62172498 -1330.23242188 446.12109375 C-1331.32689663 443.16979945 -1332.40325284 440.21287515 -1333.46459961 437.24951172 C-1334.45090444 434.49790574 -1335.46837085 431.76225865 -1336.52172852 429.03564453 C-1336.98119873 427.82247559 -1337.44066895 426.60930664 -1337.9140625 425.359375 C-1338.32221191 424.30459961 -1338.73036133 423.24982422 -1339.15087891 422.16308594 C-1340.60847668 416.73334563 -1339.91984052 411.4826138 -1339 406 C-1339.66 405.67 -1340.32 405.34 -1341 405 C-1343.72892162 412.06309125 -1343.09386576 419.10514746 -1341.45703125 426.4296875 C-1340.22535305 433.35656149 -1341.56377775 438.53418611 -1344 444.9375 C-1344.28617188 445.71673828 -1344.57234375 446.49597656 -1344.8671875 447.29882812 C-1345.56808874 449.20294317 -1346.28265304 451.1020195 -1347 453 C-1350.3 453 -1353.6 453 -1357 453 C-1357.21914062 454.16917969 -1357.43828125 455.33835937 -1357.6640625 456.54296875 C-1357.98313362 458.09140215 -1358.30351571 459.63956582 -1358.625 461.1875 C-1358.83576172 462.34088867 -1358.83576172 462.34088867 -1359.05078125 463.51757812 C-1360.31852163 469.42524832 -1362.24437668 471.38442336 -1367 475 C-1367 478.67784963 -1366.34639603 481.21098683 -1364.875 484.5625 C-1363.5040844 488.38147916 -1364.52916977 491.59450183 -1365.7890625 495.35546875 C-1366.27398929 498.14627494 -1366.27398929 498.14627494 -1364.34765625 500.67578125 C-1363.59355469 501.54589844 -1362.83945313 502.41601562 -1362.0625 503.3125 C-1360.93521484 504.63701172 -1360.93521484 504.63701172 -1359.78515625 505.98828125 C-1359.19605469 506.65214844 -1358.60695313 507.31601562 -1358 508 C-1354.39007621 507.34414811 -1354.39007621 507.34414811 -1351 506 C-1350.26924352 503.6859378 -1349.59861742 501.35171131 -1349 499 C-1350.485 498.2884375 -1350.485 498.2884375 -1352 497.5625 C-1355 495 -1355 495 -1355.43359375 492.9765625 C-1355.43761843 490.6180996 -1355.25467982 488.3438502 -1355 486 C-1354.979375 484.80375 -1354.95875 483.6075 -1354.9375 482.375 C-1353.82669896 478.37611624 -1352.19560312 476.3292369 -1349.47265625 473.28515625 C-1345.50490788 471.22293 -1341.38522619 471.76908839 -1337 472 C-1336.98130859 472.76030518 -1336.96261719 473.52061035 -1336.94335938 474.30395508 C-1336.90910689 493.97314383 -1336.90910689 493.97314383 -1327 510 C-1327 510.66 -1327 511.32 -1327 512 C-1325.700625 512.185625 -1324.40125 512.37125 -1323.0625 512.5625 C-1322.33160156 512.66691406 -1321.60070313 512.77132812 -1320.84765625 512.87890625 C-1320.23792969 512.91886719 -1319.62820313 512.95882812 -1319 513 C-1317.32837328 511.32837328 -1317.67423311 509.20394917 -1317.5 506.90625 C-1317.4175 505.87628906 -1317.335 504.84632813 -1317.25 503.78515625 C-1317.1675 502.70105469 -1317.085 501.61695313 -1317 500.5 C-1316.83747078 498.36426444 -1316.67101957 496.22882246 -1316.5 494.09375 C-1316.4278125 493.14177734 -1316.355625 492.18980469 -1316.28125 491.20898438 C-1316 489 -1316 489 -1315 488 C-1309.20015452 487.53540036 -1303.40054031 487.38584342 -1297.58447266 487.26538086 C-1295.62862612 487.21391121 -1293.67323912 487.13912029 -1291.71923828 487.03979492 C-1274.49770732 486.18032896 -1274.49770732 486.18032896 -1269.38549805 490.69384766 C-1267.41541319 492.76458418 -1265.78960109 494.95183604 -1264.17700195 497.3059082 C-1262.2384142 500.21551204 -1262.2384142 500.21551204 -1259.14892578 500.88745117 C-1255.12799945 501.06242257 -1252.96424067 500.71461491 -1249.69140625 498.2890625 C-1247.48547834 495.30367276 -1247.95294666 494.00465868 -1248.375 490.375 C-1248.22494136 484.78531556 -1246.96545041 482.59808036 -1242.90625 478.7421875 C-1241.23905553 477.23378921 -1239.56159048 475.73667929 -1237.875 474.25 C-1230.90296836 468.37696109 -1230.90296836 468.37696109 -1228.06640625 460.10546875 C-1228.2005976 455.94981038 -1229.04438734 452.03535916 -1230 448 C-1228.36282125 446.36282125 -1226.56471381 446.58860272 -1224.30859375 446.42578125 C-1221.19719898 446.45957065 -1219.60224123 446.49359581 -1217.19580078 448.51708984 C-1215.63057011 450.66960627 -1214.33078144 452.84797028 -1213.0625 455.1875 C-1212.3809082 456.34088867 -1212.3809082 456.34088867 -1211.68554688 457.51757812 C-1210.80882705 459.00864177 -1209.95049993 460.51070883 -1209.11303711 462.02416992 C-1207.95903144 464.13739527 -1207.95903144 464.13739527 -1206.2578125 466.5625 C-1203.38417486 472.13128847 -1203.35342958 478.88197988 -1204 485 C-1206.13881733 488.49856319 -1208.60147604 490.73927509 -1212 493 C-1214.9640578 491.6955696 -1215.91606405 491.12890164 -1217.75 488.3125 C-1219.68799269 485.80745898 -1219.68799269 485.80745898 -1221.92578125 485.86328125 C-1225.11571626 486.25400455 -1227.9476083 486.9825361 -1231 488 C-1230.34 494.27 -1229.68 500.54 -1229 507 C-1222.22267545 509.93640071 -1222.22267545 509.93640071 -1216 509.6875 C-1215.236875 509.56761719 -1214.47375 509.44773437 -1213.6875 509.32421875 C-1212.8521875 509.16373047 -1212.8521875 509.16373047 -1212 509 C-1212.0309375 507.0509375 -1212.0309375 507.0509375 -1212.0625 505.0625 C-1212.08399454 503.70834367 -1212.07148199 502.35243917 -1212 501 C-1209.84216828 498.84216828 -1205.0598915 499.57126287 -1202.0625 499.4375 C-1200.71236816 499.37598755 -1200.71236816 499.37598755 -1199.33496094 499.31323242 C-1187.55591682 498.81434797 -1175.81697614 498.52385613 -1164.0625 499.625 C-1162.77472656 499.74101562 -1161.48695313 499.85703125 -1160.16015625 499.9765625 C-1157 501 -1157 501 -1155.05859375 504.0859375 C-1154.53458984 505.52839844 -1154.53458984 505.52839844 -1154 507 C-1154 505.02 -1154 503.04 -1154 501 C-1151.69973614 499.84986807 -1149.98752064 499.70767601 -1147.4296875 499.46484375 C-1146.53378906 499.37783203 -1145.63789062 499.29082031 -1144.71484375 499.20117188 C-1143.77769531 499.11416016 -1142.84054687 499.02714844 -1141.875 498.9375 C-1140.93011719 498.84662109 -1139.98523437 498.75574219 -1139.01171875 498.66210938 C-1136.67479389 498.43785901 -1134.33757884 498.21730943 -1132 498 C-1129.36995153 506.38327948 -1129.36995153 506.38327948 -1130 510 C-1131.96875 512.23828125 -1131.96875 512.23828125 -1134.5 514.3125 C-1135.3353125 515.00988281 -1136.170625 515.70726562 -1137.03125 516.42578125 C-1137.6809375 516.94527344 -1138.330625 517.46476563 -1139 518 C-1138.67 518.99 -1138.34 519.98 -1138 521 C-1134.8187727 520.01533441 -1132.20284104 519.13852559 -1129.4375 517.25 C-1123.81759619 515.20639861 -1118.59467672 516.07726371 -1113 518 C-1110.0916267 520.33522482 -1108.00421754 522.86613258 -1106 526 C-1104.72125 525.731875 -1103.4425 525.46375 -1102.125 525.1875 C-1101.30515625 525.01605469 -1100.4853125 524.84460938 -1099.640625 524.66796875 C-1096.97509886 524.05263816 -1096.97509886 524.05263816 -1094.421875 522.98828125 C-1091.86660219 521.99674134 -1089.73558816 521.22946545 -1087 521 C-1084.09276961 522.52110447 -1082.0873387 524.49104653 -1080 527 C-1081.70236236 530.75180831 -1084.00252547 533.39511164 -1086.7578125 536.4140625 C-1088.20554064 537.92666909 -1088.20554064 537.92666909 -1088 540 C-1083.59482598 539.4218718 -1080.57517376 537.7511938 -1076.8125 535.4375 C-1071.20321932 532 -1071.20321932 532 -1069 532 C-1069.03480469 530.79601562 -1069.06960938 529.59203125 -1069.10546875 528.3515625 C-1069.1336028 526.77605558 -1069.16090337 525.20053362 -1069.1875 523.625 C-1069.22520508 522.43390625 -1069.22520508 522.43390625 -1069.26367188 521.21875 C-1069.29004405 519.14413852 -1069.15486462 517.06899135 -1069 515 C-1068.01 514.34 -1067.02 513.68 -1066 513 C-1067.216875 513.020625 -1068.43375 513.04125 -1069.6875 513.0625 C-1072.41943743 512.69856517 -1073.66060555 512.33294514 -1075.64453125 510.38671875 C-1079.75827386 503.90194293 -1079.51902235 497.46238796 -1079 490 C-1077.73308493 489.32591692 -1076.46129251 488.66099503 -1075.1875 488 C-1074.47980469 487.62875 -1073.77210938 487.2575 -1073.04296875 486.875 C-1071 486 -1071 486 -1068 486 C-1066.59669456 489.21758529 -1065.23257274 492.45038349 -1063.875 495.6875 C-1063.47667969 496.59951172 -1063.07835937 497.51152344 -1062.66796875 498.45117188 C-1062.30058594 499.33740234 -1061.93320313 500.22363281 -1061.5546875 501.13671875 C-1061.20905762 501.94842529 -1060.86342773 502.76013184 -1060.50732422 503.59643555 C-1059.8597344 506.66454035 -1060.62213569 508.24212517 -1062 511 C-1060.35 510.34 -1058.7 509.68 -1057 509 C-1055.87464844 510.03447266 -1055.87464844 510.03447266 -1054.7265625 511.08984375 C-1049.79327088 515.62081498 -1044.85464119 520.14490881 -1039.875 524.625 C-1039.06289062 525.36234375 -1038.25078125 526.0996875 -1037.4140625 526.859375 C-1035.85729429 528.23981024 -1034.26999845 529.58691154 -1032.6484375 530.890625 C-1024.46155594 537.66413613 -1018.63085369 546.16159827 -1012.56079102 554.8112793 C-1011.56962396 556.20120776 -1010.55179016 557.57278957 -1009.49975586 558.91723633 C-1006.49699356 562.79739086 -1005.35262777 565.53870955 -1005.1875 570.4375 C-1005.13980469 571.48808594 -1005.09210937 572.53867187 -1005.04296875 573.62109375 C-1005.02878906 574.40613281 -1005.01460937 575.19117188 -1005 576 C-1003.68 575.67 -1002.36 575.34 -1001 575 C-1000.87625 573.1128125 -1000.87625 573.1128125 -1000.75 571.1875 C-1000.28635764 567.27768014 -1000.28635764 567.27768014 -997.9375 565 C-997.298125 564.67 -996.65875 564.34 -996 564 C-997.07272072 561.19442274 -998.1565443 558.74841095 -999.75 556.1875 C-1001.49811613 551.72980386 -1000.46974403 549.48658705 -999 545 C-999.928125 545 -1000.85625 545 -1001.8125 545 C-1005 544 -1005 544 -1006.06640625 542.328125 C-1007.54521186 538.52752314 -1008.38559207 535.11298207 -1008 531 C-1001.25 527 -1001.25 527 -999 527 C-998.94392578 525.75283203 -998.94392578 525.75283203 -998.88671875 524.48046875 C-998.82097656 523.39378906 -998.75523437 522.30710937 -998.6875 521.1875 C-998.62949219 520.10855469 -998.57148437 519.02960937 -998.51171875 517.91796875 C-997.95625737 514.75056684 -997.39346153 513.99455127 -995 512 C-994.28552357 509.89667109 -994.28552357 509.89667109 -994 508 C-995.65 507.67 -997.3 507.34 -999 507 C-997.9472075 500.80370026 -995.8321779 495.30278688 -990.84228516 491.24560547 C-988.38233409 489.68732165 -985.89023449 488.29144193 -983.3125 486.9375 C-982.44560547 486.45345703 -981.57871094 485.96941406 -980.68554688 485.47070312 C-974.37740895 482 -974.37740895 482 -972 482 C-971.77957031 481.08734375 -971.77957031 481.08734375 -971.5546875 480.15625 C-965.79131239 457.6327151 -965.79131239 457.6327151 -960.9375 453.0546875 C-958.8125 451.9375 -958.8125 451.9375 -955 451 C-952 452 -952 452 -950.421875 454.41796875 C-946.89215752 458.18110303 -943.20592365 458.46699161 -938.25 459.3125 C-936.91775391 459.56483398 -936.91775391 459.56483398 -935.55859375 459.82226562 C-933.37508619 460.2331407 -931.18989438 460.624944 -929 461 C-927.48904407 466.06723024 -926.55119651 470.76363313 -926 476 C-927.98 476.66 -929.96 477.32 -932 478 C-931.70029297 479.09054687 -931.70029297 479.09054687 -931.39453125 480.203125 C-929.88377005 488.1118078 -929.88377005 488.1118078 -932.03222656 491.74609375 C-934.99491843 495.52497188 -938.44163058 498.78892743 -942 502 C-941.34 503.65 -940.68 505.3 -940 507 C-939.58226318 506.54560547 -939.16452637 506.09121094 -938.73413086 505.62304688 C-936.82070371 503.563611 -934.87990536 501.53211117 -932.9375 499.5 C-932.28072266 498.78457031 -931.62394531 498.06914062 -930.94726562 497.33203125 C-926.0168431 492.23159416 -926.0168431 492.23159416 -922.94189453 491.53125 C-921.00390625 491.53125 -921.00390625 491.53125 -918 492 C-917.87625 491.2575 -917.7525 490.515 -917.625 489.75 C-917 487 -917 487 -915.96875 485.28125 C-914.59845749 482.05443216 -914.81043004 479.23677774 -914.875 475.75 C-914.90207031 473.85507812 -914.90207031 473.85507812 -914.9296875 471.921875 C-914.95289063 470.95765625 -914.97609375 469.9934375 -915 469 C-912.11788698 468.03929566 -910.30149956 467.89418117 -907.3125 467.9375 C-906.50425781 467.94652344 -905.69601562 467.95554687 -904.86328125 467.96484375 C-903.94095703 467.98224609 -903.94095703 467.98224609 -903 468 C-902.87775374 477.0598059 -903.16069406 485.97746114 -904 495 C-903.34 494.34 -902.68 493.68 -902 493 C-897.75280228 493.15168563 -895.01437907 496.32816401 -892 499 C-892 496.36 -892 493.72 -892 491 C-891.34 491 -890.68 491 -890 491 C-890 490.01 -890 489.02 -890 488 C-888.29301718 487.65981837 -886.58432867 487.3281911 -884.875 487 C-883.92367187 486.814375 -882.97234375 486.62875 -881.9921875 486.4375 C-873.70275975 485.22546879 -873.70275975 485.22546879 -869.53515625 488.16015625 C-868.3645104 489.11171843 -867.2071001 490.07976254 -866.0625 491.0625 C-865.46115234 491.52849609 -864.85980469 491.99449219 -864.24023438 492.47460938 C-862.53515625 493.91015625 -862.53515625 493.91015625 -860 497 C-860.21875 500.71875 -860.21875 500.71875 -861 504 C-859.58333333 506.58333333 -859.58333333 506.58333333 -857 508 C-853.832168 508.33448259 -853.832168 508.33448259 -851 508 C-850.51566124 505.75262318 -850.51566124 505.75262318 -851 503 C-852.86473338 500.82154575 -854.64426251 498.97480347 -856.75 497.0625 C-864.7109446 489.68243772 -864.7109446 489.68243772 -867 485 C-866.19140625 482.140625 -866.19140625 482.140625 -864.5625 479.25 C-862.38142696 474.71314264 -861.60189566 472.3772677 -863.25 467.5625 C-863.58515625 466.80066406 -863.9203125 466.03882813 -864.265625 465.25390625 C-865.23409795 462.28151851 -865.13885373 460.92396175 -864 458 C-860.64858003 454.33976338 -859.32436929 453.09742162 -854.3359375 452.73046875 C-852.37527344 452.95669922 -852.37527344 452.95669922 -850.375 453.1875 C-848.93902344 453.32396429 -847.50282043 453.45806561 -846.06640625 453.58984375 C-845.01864014 453.6978833 -845.01864014 453.6978833 -843.94970703 453.80810547 C-832.15264767 454.96919846 -820.62108308 452.84212784 -809 451 C-809 450.34 -809 449.68 -809 449 C-810.78965547 447.63722914 -810.78965547 447.63722914 -813 446.375 C-813.7425 445.92898438 -814.485 445.48296875 -815.25 445.0234375 C-815.8275 444.68570312 -816.405 444.34796875 -817 444 C-815.12668305 438.89716268 -812.50634804 434.24814356 -809.75854492 429.57714844 C-807.685193 426.0490837 -805.78747285 422.60759008 -804.23828125 418.81640625 C-799.95032193 409.29884038 -794.26471186 405.68667268 -784.7331543 402.00878906 C-781.98296304 400.99053136 -779.21677817 400.05274987 -776.42504883 399.15527344 C-769.71882601 397.37950867 -769.71882601 397.37950867 -764.80981445 393.03930664 C-764.45695264 391.65917848 -764.1324533 390.27143412 -763.83911133 388.87744141 C-762.58259745 386.06609671 -760.82739566 385.60195846 -758.03515625 384.43359375 C-756.05513866 383.73655349 -754.06343429 383.07200511 -752.0625 382.4375 C-751.06025391 382.08365234 -750.05800781 381.72980469 -749.02539062 381.36523438 C-742.00667579 378.98196162 -742.00667579 378.98196162 -738.80639648 379.03930664 C-737 380 -737 380 -735 386 C-730.71 384.35 -726.42 382.7 -722 381 C-722 378.03 -722 375.06 -722 372 C-718.41398088 370.62076188 -715.08103044 369.81917295 -711.27734375 369.43359375 C-710.47417725 369.35036865 -709.67101074 369.26714355 -708.84350586 369.18139648 C-707.93097046 369.09160522 -707.93097046 369.09160522 -707 369 C-707.05498657 367.73724243 -707.05498657 367.73724243 -707.11108398 366.44897461 C-707.23104854 363.29757297 -707.31844946 360.14734155 -707.38452148 356.99438477 C-707.41952778 355.6352692 -707.46715338 354.27641353 -707.52807617 352.91821289 C-708.02054202 341.64943561 -708.02054202 341.64943561 -705.58642578 337.71533203 C-703.81689954 335.97266767 -701.97189904 334.50568778 -700 333 C-698.98881301 331.88232282 -698.00617529 330.73773544 -697.0625 329.5625 C-696.0415625 328.2940625 -696.0415625 328.2940625 -695 327 C-692.18644068 327.64147959 -689.37419761 328.28795515 -686.5625 328.9375 C-685.76005859 329.11990234 -684.95761719 329.30230469 -684.13085938 329.49023438 C-678.11328125 330.88671875 -678.11328125 330.88671875 -677 332 C-676.435257 336.99936425 -676.24418172 340.81903393 -679 345.125 C-679.66 345.74375 -680.32 346.3625 -681 347 C-679.20800528 347.78282648 -679.20800528 347.78282648 -677 348 C-676.34 347.505 -675.68 347.01 -675 346.5 C-673 345 -673 345 -671.0625 345.0625 C-668.03576377 346.4382892 -666.2215517 347.46108378 -664 350 C-663.87173693 353.09969075 -664.34733541 355.97577198 -665 359 C-664.01 359 -663.02 359 -662 359 C-661.79503906 358.28972656 -661.59007812 357.57945312 -661.37890625 356.84765625 C-661.10949219 355.92855469 -660.84007812 355.00945312 -660.5625 354.0625 C-660.29566406 353.14597656 -660.02882813 352.22945313 -659.75390625 351.28515625 C-659 349 -659 349 -658 348 C-654.79825386 347.32845535 -651.54864217 346.91213418 -648.3125 346.4375 C-647.41337891 346.29892578 -646.51425781 346.16035156 -645.58789062 346.01757812 C-643.06193232 345.64137157 -640.53456112 345.31217079 -638 345 C-636.92878906 344.855625 -635.85757812 344.71125 -634.75390625 344.5625 C-630.65945298 345.21296634 -628.42788045 347.72056233 -625.625 350.5625 C-624.49129328 351.67882257 -623.35588007 352.79341479 -622.21875 353.90625 C-621.6721875 354.44507813 -621.125625 354.98390625 -620.5625 355.5390625 C-618.55572117 357.4154007 -616.35398923 358.96139506 -614.125 360.5625 C-612.234375 362.15625 -612.234375 362.15625 -611 364 C-610.9483058 366.92933803 -611.37355198 369.55455753 -611.8984375 372.43359375 C-612.26858082 375.01253377 -612.26858082 375.01253377 -610.7265625 376.72265625 C-609.59115882 377.64485064 -608.45447438 378.5654708 -607.31640625 379.484375 C-606 381 -606 381 -605.71484375 383.078125 C-605.94675787 385.47050225 -606.39662439 387.67440661 -607 390 C-607.28875 391.2375 -607.5775 392.475 -607.875 393.75 C-610.07782824 399.25153585 -614.42970054 403.56762951 -618.30859375 407.94921875 C-618.76572754 408.46766357 -619.22286133 408.9861084 -619.69384766 409.52026367 C-620.87458274 410.85791513 -622.05636967 412.19463795 -623.23828125 413.53125 C-625.20063858 416.28116094 -625.96172646 418.54116481 -626.75 421.8125 C-626.99234375 422.78832031 -627.2346875 423.76414062 -627.484375 424.76953125 C-627.73960937 425.87361328 -627.73960937 425.87361328 -628 427 C-626.65885417 426.73177083 -625.31770833 426.46354167 -623.9765625 426.1953125 C-622.19270833 425.83854167 -620.40885417 425.48177083 -618.625 425.125 C-617.75488281 424.95097656 -616.88476562 424.77695312 -615.98828125 424.59765625 C-611.4375 423.6875 -606.88671875 422.77734375 -602.3359375 421.8671875 C-600.90507813 421.58101563 -599.47421875 421.29484375 -598 421 C-594.535 424.96 -594.535 424.96 -591 429 C-589.205625 427.6696875 -589.205625 427.6696875 -587.375 426.3125 C-586.36566406 425.56419922 -586.36566406 425.56419922 -585.3359375 424.80078125 C-582.8655877 422.95863765 -582.8655877 422.95863765 -580.29296875 420.44140625 C-576.57913552 417.3306892 -572.60832667 416.53694155 -567.9375 415.625 C-567.14794922 415.44839844 -566.35839844 415.27179688 -565.54492188 415.08984375 C-557.70711944 413.44738725 -557.70711944 413.44738725 -554 415 C-552.41796875 417.06640625 -552.41796875 417.06640625 -551.1875 419.5625 C-550.76855469 420.38878906 -550.34960938 421.21507812 -549.91796875 422.06640625 C-549.61503906 422.70449219 -549.31210938 423.34257812 -549 424 C-538.49827616 425.29807469 -538.49827616 425.29807469 -528.85546875 422.51171875 C-527.54375161 420.64638256 -527.54375161 420.64638256 -526.43359375 418.69140625 C-523.49018597 415.21866628 -518.30385351 415.37524701 -514 415 C-513.96675569 409.79632701 -513.96675569 409.79632701 -516.4375 405.51953125 C-517.2728125 404.86017578 -517.2728125 404.86017578 -518.125 404.1875 C-520.44465225 402.17787287 -520.96555079 401.44523974 -521.20703125 398.32421875 C-520.82222301 394.11363584 -520.0834755 390.08460676 -519 386 C-517.31234761 386.4577719 -515.62488648 386.9162489 -513.9375 387.375 C-512.99777344 387.63023437 -512.05804687 387.88546875 -511.08984375 388.1484375 C-508 389 -508 389 -504.49609375 390.453125 C-503.34238281 390.63359375 -502.18867187 390.8140625 -501 391 C-498.72123689 389.17091281 -497.03807411 387.5241715 -495.125 385.375 C-489.85870879 380.12923706 -489.85870879 380.12923706 -485.79492188 379.84667969 C-480.62406605 380.45205884 -475.84208612 382.14830113 -471 384 C-470.01 384.33 -469.02 384.66 -468 385 C-468.66 386.98 -469.32 388.96 -470 391 C-468.41058594 391.89138672 -468.41058594 391.89138672 -466.7890625 392.80078125 C-455.77809346 399.31940248 -455.77809346 399.31940248 -453.55859375 404.11328125 C-453.11470828 406.80805054 -452.88082208 409.27445273 -453 412 C-455.97 413.98 -455.97 413.98 -459 416 C-454.04093494 420.1835594 -454.04093494 420.1835594 -447.875 421.1875 C-442.37751848 421.43100003 -438.87592055 424.87966977 -435.04443359 428.49487305 C-430.80747913 432.21546967 -427.5294844 432.45932359 -421.95678711 432.17358398 C-421.31104736 432.11630127 -420.66530762 432.05901855 -420 432 C-420.34893311 431.25951416 -420.69786621 430.51902832 -421.05737305 429.75610352 C-422.6314082 426.37154481 -424.15947921 422.9680649 -425.6875 419.5625 C-426.51217773 417.81549805 -426.51217773 417.81549805 -427.35351562 416.03320312 C-431.69029018 406.22712054 -431.69029018 406.22712054 -429.83203125 400.65234375 C-428.84301758 398.49194336 -428.84301758 398.49194336 -428 397 C-417.31569507 395.9264574 -417.31569507 395.9264574 -414.08984375 398.55859375 C-412.75 400.5 -412.75 400.5 -411 404 C-407.7 403.67 -404.4 403.34 -401 403 C-401.515625 402.13375 -402.03125 401.2675 -402.5625 400.375 C-404.22014271 396.48314319 -404.16853107 395.00639223 -403 391 C-400.5060241 385.25301205 -400.5060241 385.25301205 -398 384 C-395.795636 383.77049681 -393.58607827 383.58924067 -391.375 383.4375 C-389.59222656 383.31181641 -389.59222656 383.31181641 -387.7734375 383.18359375 C-386.85820313 383.12300781 -385.94296875 383.06242187 -385 383 C-384.87753906 382.26394531 -384.75507812 381.52789062 -384.62890625 380.76953125 C-383.72233635 376.77724516 -381.90116812 373.61835223 -380 370 C-376.7 370.33 -373.4 370.66 -370 371 C-370 370.34 -370 369.68 -370 369 C-370.67675781 368.74605469 -371.35351562 368.49210937 -372.05078125 368.23046875 C-375.53739012 366.77579088 -378.86725496 365.1061956 -382.1875 363.3125 C-382.81591797 362.99861328 -383.44433594 362.68472656 -384.09179688 362.36132812 C-387.66131104 360.41050274 -388.91094001 359.22435332 -390.4296875 355.3984375 C-390.99676342 352.01928645 -391.28173493 350.16161284 -390 347 C-387.4375 344.6875 -387.4375 344.6875 -385 343 C-386.12451727 340.0280615 -387.22293791 337.66559313 -389 335 C-388.79892223 332.31896303 -388.41216879 330.58180288 -386.8515625 328.37890625 C-384.18127216 326.3902723 -381.8534073 326.61306486 -378.5625 326.4375 C-375.05933856 326.11191087 -375.05933856 326.11191087 -372 325 C-370.40606409 322.49337202 -369.78813743 320.20054955 -369 317.34765625 C-368 315 -368 315 -366.0625 313.74609375 C-363.7164435 312.98917349 -361.42131232 312.45797848 -359 312 C-357.58237269 311.60762101 -356.16564005 311.21198933 -354.75 310.8125 C-353.5125 310.544375 -352.275 310.27625 -351 310 C-350.113125 309.79375 -349.22625 309.5875 -348.3125 309.375 C-345.26863653 310.1976658 -344.99657251 311.32595442 -343.4375 314 C-342.87869141 315.11375 -342.87869141 315.11375 -342.30859375 316.25 C-341.66083984 317.11625 -341.66083984 317.11625 -341 318 C-339.68 318 -338.36 318 -337 318 C-337.03480469 317.2265625 -337.06960938 316.453125 -337.10546875 315.65625 C-337.14607422 314.09390625 -337.14607422 314.09390625 -337.1875 312.5 C-337.22230469 311.4790625 -337.25710938 310.458125 -337.29296875 309.40625 C-336.92627024 305.14276869 -336.46913658 301.57799041 -334 298 C-330.96906542 295.93048502 -327.7559419 294.7292609 -324.3125 293.5 C-323.41982422 293.15453125 -322.52714844 292.8090625 -321.60742188 292.453125 C-319.41495021 291.60896479 -317.20866756 290.80082835 -315 290 C-312.69 291.98 -310.38 293.96 -308 296 C-309 300 -309 300 -311 303 C-306.84934048 303 -305.97014116 302.65895378 -302.62890625 300.55859375 C-301.80712891 300.05779297 -300.98535156 299.55699219 -300.13867188 299.04101562 C-298.42228088 297.97266308 -296.70872356 296.89974439 -294.99804688 295.82226562 C-294.17498047 295.32275391 -293.35191406 294.82324219 -292.50390625 294.30859375 C-291.38737671 293.60947876 -291.38737671 293.60947876 -290.24829102 292.89624023 C-287.40327224 291.76212536 -285.89700358 292.12967982 -283 293 C-282.154375 293.37125 -281.30875 293.7425 -280.4375 294.125 C-277.6001924 295.14352068 -276.78728405 295.0013576 -274 294 C-270.67684788 291.8051166 -268.17327886 289.34192882 -266 286 C-265.65320075 283.09811839 -265.65320075 283.09811839 -265.8125 280 C-265.70465216 270.71430084 -259.45818758 265.33220122 -253.53759766 258.83447266 C-251.51869045 256.42576056 -250.15435715 253.73735571 -248.625 251 C-245.77026432 247.3962799 -243.18464655 246.64938138 -238.78515625 246.01171875 C-231.38029776 245.42208492 -223.26226119 244.81168598 -217.0546875 249.48828125 C-214.30079243 252.03310545 -212.0752767 254.87439988 -210 258 C-203.65049077 255.64667071 -197.74464677 252.54746952 -194.65283203 246.26074219 C-193.63081866 243.15297697 -192.80947791 240.05978952 -192.0625 236.875 C-191.51321701 234.74700854 -190.96248714 232.6193899 -190.41015625 230.4921875 C-190.18465088 229.55745605 -189.95914551 228.62272461 -189.72680664 227.65966797 C-189.00138314 225.00506145 -188.07083352 222.53272914 -187 220 C-183.04 220.495 -183.04 220.495 -179 221 C-172.56471005 212.0439426 -172.56471005 212.0439426 -170 201.69921875 C-170.78601434 198.96706312 -171.74048022 196.54537098 -173 194 C-174.61157477 189.64874813 -175.252594 187.47355001 -174 183 C-172.58984375 180.54296875 -172.58984375 180.54296875 -170.9375 178.1875 C-170.38964844 177.39730469 -169.84179688 176.60710937 -169.27734375 175.79296875 C-168.85582031 175.20128906 -168.43429687 174.60960937 -168 174 C-162.95705767 175.74595986 -161.16805517 177.83627035 -158 182 C-158.350625 182.5775 -158.70125 183.155 -159.0625 183.75 C-160.36283174 186.24020355 -160.36283174 186.24020355 -159 190 C-151.41 188.68 -143.82 187.36 -136 186 C-136 183.03 -136 180.06 -136 177 C-141.51691399 174.7558316 -145.53108519 173.87186996 -151.5 174.1875 C-158.23054239 174.40104247 -161.99442314 172.3459272 -167 168 C-165.75206369 163.98743867 -164.28088772 160.38267961 -162.27734375 156.69140625 C-161.74351074 155.70438721 -161.20967773 154.71736816 -160.65966797 153.70043945 C-160.09135254 152.66491943 -159.52303711 151.62939941 -158.9375 150.5625 C-158.3511377 149.49153076 -157.76477539 148.42056152 -157.16064453 147.31713867 C-155.4494329 144.20633507 -153.7272708 141.10190999 -152 138 C-151.3500708 136.8253418 -151.3500708 136.8253418 -150.68701172 135.62695312 C-146.14308836 127.47658955 -141.01447896 120.26961308 -134.84375 113.27734375 C-131.30187669 109.25349114 -128.04602116 105.01294328 -124.79150391 100.75561523 C-119.48098666 93.88062647 -115.5602789 90.48921864 -107.4375 87.8125 C-99.45089903 84.93402757 -93.894552 81.20340898 -87.61816406 75.42285156 C-84.49760261 72.67894207 -81.1358693 70.24055748 -77.8125 67.75 C-70.8727451 62.50682199 -64.12261789 57.06529907 -57.44458008 51.49316406 C-56.77450928 50.93467773 -56.10443848 50.37619141 -55.4140625 49.80078125 C-54.53161865 49.06081909 -54.53161865 49.06081909 -53.63134766 48.3059082 C-49.46608676 44.97158008 -49.46608676 44.97158008 -46.7578125 45.13671875 C-45.88898438 45.31847656 -45.02015625 45.50023437 -44.125 45.6875 C-43.16207031 45.88472656 -42.19914062 46.08195312 -41.20703125 46.28515625 C-35.79671811 47.49110912 -30.39195564 48.71416002 -25 50 C-24.67 48.68 -24.34 47.36 -24 46 C-28.29 45.01 -32.58 44.02 -37 43 C-35.62630617 36.22817263 -33.7807496 29.81117435 -31.4375 23.3125 C-30.99180664 21.94641602 -30.99180664 21.94641602 -30.53710938 20.55273438 C-27.9592532 13.46748896 -24.55830781 10.51773394 -18 7 C-16.81734967 6.29487205 -15.63501951 5.58920659 -14.453125 4.8828125 C-13.39609375 4.30273438 -12.3390625 3.72265625 -11.25 3.125 C-10.18265625 2.52945312 -9.1153125 1.93390625 -8.015625 1.3203125 C-4.81978956 -0.07890042 -3.40480045 -0.6768268 0 0 Z M-12 317 C-13.42451686 321.7461391 -14.35068722 326.03280338 -14 331 C-9.7299399 336.80696485 -3.88289187 340.12284767 3 342 C6.25044709 342.16798469 6.25044709 342.16798469 9 342 C1.71844878 333.30042607 1.71844878 333.30042607 -6 325 C-6.8563027 322.36766208 -7.38929927 319.70453182 -8 317 C-9.32 317 -10.64 317 -12 317 Z M-629 428 C-629.50588147 429.91512272 -630.00448391 431.83216922 -630.5 433.75 C-630.7784375 434.81734375 -631.056875 435.8846875 -631.34375 436.984375 C-632.14175989 440.13705302 -632.14175989 440.13705302 -632 444 C-633.08667969 443.95166016 -633.08667969 443.95166016 -634.1953125 443.90234375 C-640.14056079 443.93170514 -640.14056079 443.93170514 -645.1015625 446.859375 C-647.74467969 450.59230828 -649.03759196 452.92862904 -648.875 457.5625 C-648.58625 458.366875 -648.2975 459.17125 -648 460 C-642.63001557 458.52325428 -638.52517068 456.13593516 -634 453 C-633.14792969 452.50242187 -632.29585937 452.00484375 -631.41796875 451.4921875 C-628.49245271 449.48791691 -626.79259908 448.08309424 -625 445 C-624.44959834 439.27802988 -625.77987785 433.56325126 -627 428 C-627.66 428 -628.32 428 -629 428 Z M-910 499 C-910.99 499.495 -910.99 499.495 -912 500 C-913.06802669 508.50848346 -913.06802669 508.50848346 -910.44140625 516.265625 C-908.69006553 517.71744065 -907.00326371 518.92682301 -905 520 C-903.35 518.35 -901.7 516.7 -900 515 C-901.29097692 512.89540739 -902.58275359 510.79131292 -903.875 508.6875 C-904.23980469 508.09259766 -904.60460937 507.49769531 -904.98046875 506.88476562 C-906.61411539 504.22637701 -908.26895824 501.59656263 -910 499 Z M-1510 504 C-1509.34 508.62 -1508.68 513.24 -1508 518 C-1506.35 518 -1504.7 518 -1503 518 C-1502.71671178 514.29207191 -1502.54730027 510.69795687 -1503 507 C-1505.45694253 504.73702662 -1506.6796254 504 -1510 504 Z M-936 511 C-937.08007511 514.09464999 -938.03330117 517.14062328 -938.7890625 520.33203125 C-939.06492187 521.48058594 -939.34078125 522.62914062 -939.625 523.8125 C-939.88539063 524.95332031 -940.14578125 526.09414063 -940.4140625 527.26953125 C-941.5266916 530.68386913 -943.38175055 532.49917228 -945.92578125 534.9921875 C-950.92386658 540.33373508 -952.05179575 546.2770255 -953.22192383 553.27661133 C-953.56584237 555.33247994 -953.95175606 557.37701088 -954.34570312 559.42382812 C-956.06778443 566.75935173 -956.06778443 566.75935173 -955 574 C-953.06837938 575.88157064 -953.06837938 575.88157064 -950.8125 577.6875 C-947.09086999 581.26213564 -947.09086999 581.26213564 -946.70703125 584.37890625 C-947.15254927 586.90628419 -947.71006518 588.77844558 -949 591 C-950.03125 591.5775 -951.0625 592.155 -952.125 592.75 C-955.33788041 594.7197288 -955.33788041 594.7197288 -955.390625 598.125 C-955.37635666 601.43525474 -955.25749442 604.70025674 -955 608 C-956.23363281 608.08121094 -956.23363281 608.08121094 -957.4921875 608.1640625 C-964.04238613 608.92771893 -964.04238613 608.92771893 -969.37158203 612.48388672 C-970.63859949 614.30494048 -971.8021561 616.15668428 -972.9375 618.0625 C-975.42665297 622.16590308 -976.91366615 624.56400502 -981.484375 626.3984375 C-988.29966625 627.39053686 -996.03802822 628.17211264 -1001.8125 623.9375 C-1002.8953125 622.9784375 -1002.8953125 622.9784375 -1004 622 C-1004.66 622 -1005.32 622 -1006 622 C-1006.33 623.32 -1006.66 624.64 -1007 626 C-1006.10861328 626.70962891 -1006.10861328 626.70962891 -1005.19921875 627.43359375 C-1003.95591797 628.42552734 -1003.95591797 628.42552734 -1002.6875 629.4375 C-1001.77742187 630.15679688 -1000.86734375 630.87609375 -999.9296875 631.6171875 C-997.95792682 633.22088619 -996.02529258 634.87378404 -994.1328125 636.5703125 C-992.73675781 637.80394531 -992.73675781 637.80394531 -991.3125 639.0625 C-990.03826172 640.22458984 -990.03826172 640.22458984 -988.73828125 641.41015625 C-985.11518956 643.51372019 -982.98746122 642.93909383 -979 642 C-978.67 639.69 -978.34 637.38 -978 635 C-976.7625 634.7525 -975.525 634.505 -974.25 634.25 C-968.35173142 632.95181648 -962.69655237 630.98560032 -957 629 C-957.16242187 628.40574219 -957.32484375 627.81148437 -957.4921875 627.19921875 C-957.97864965 624.00743135 -957.97893595 622.11029018 -957 619 C-954.38361118 616.13147446 -951.25750191 613.94482689 -948.06787109 611.7565918 C-944.49210188 609.51390349 -944.49210188 609.51390349 -942.27954102 606.08862305 C-941.90941408 603.3231768 -942.29896658 600.71349559 -942.625 597.95703125 C-943.67430514 588.43130807 -943.67430514 588.43130807 -941.7578125 584.36328125 C-938.95907822 581.39662292 -936.58822214 580.17757649 -932.6875 579 C-931.470625 579 -930.25375 579 -929 579 C-927.82050781 578.79503906 -927.82050781 578.79503906 -926.6171875 578.5859375 C-923.39420729 578.31981987 -921.87403419 578.4493583 -919 580 C-917.02004831 582.52537813 -915.62781883 585.2352087 -914.25 588.125 C-913.89043213 588.87185059 -913.53086426 589.61870117 -913.16040039 590.38818359 C-911.51311496 594.25075493 -910.63059401 596.93534985 -911.796875 601.0546875 C-912.19390625 602.02664063 -912.5909375 602.99859375 -913 604 C-911.05925139 603.72382467 -911.05925139 603.72382467 -909 603 C-906.20846172 598.81269259 -906.05258151 595.4795085 -906.0859375 590.50390625 C-907.76545388 584.06576011 -913.11142102 580.81199759 -918.37670898 577.15209961 C-919.90334497 576.06859905 -921.35410834 574.88040204 -922.796875 573.6875 C-924.81070934 571.77686818 -924.81070934 571.77686818 -927.0625 572.0625 C-929.09810703 572.9372435 -929.09810703 572.9372435 -930.8125 574.625 C-934.07892619 576.67818218 -936.29836615 575.75287468 -940 575 C-941.9490625 574.7215625 -941.9490625 574.7215625 -943.9375 574.4375 C-944.948125 574.293125 -945.95875 574.14875 -947 574 C-947 570.04 -947 566.08 -947 562 C-945.68 561.34 -944.36 560.68 -943 560 C-943.15082031 559.34257813 -943.30164063 558.68515625 -943.45703125 558.0078125 C-944.17666679 552.17164735 -943.60662588 548.41742181 -940 543.7578125 C-938.77849554 542.24897294 -937.54908095 540.74650844 -936.3125 539.25 C-931.14654719 533.0629165 -931.14654719 533.0629165 -929.69921875 525.39453125 C-930.45394342 520.06969285 -931.58010474 514.48195237 -936 511 Z M-19 729 C-18.649375 729.7425 -18.29875 730.485 -17.9375 731.25 C-16.64280941 735.04775907 -17.39883734 736.72694967 -19.0625 740.25 C-19.371875 740.8275 -19.68125 741.405 -20 742 C-18.948125 742.185625 -17.89625 742.37125 -16.8125 742.5625 C-13.43138229 743.47906806 -12.2640257 744.67032607 -10.4375 747.625 C-9.33363098 749.50632274 -9.33363098 749.50632274 -8 751 C-4.78723657 751.5863982 -4.78723657 751.5863982 -2 751 C-2 742.58427068 -5.16927014 737.0478315 -11 731 C-13.97118751 729.48289365 -15.65292907 729 -19 729 Z" fill="#EEF5FA"/>
</svg>